<!--https://www.qrcode-monkey.com-->
<svg id="Lqr" xmlns="http://www.w3.org/2000/svg" xml:space="preserve" xmlns:xlink="http://www.w3.org/1999/xlink" viewBox="0 0 360 360">
<rect width="360" height="360" fill="#ffffff" x="0" y="0"></rect>
<g fill="#000000">
<g transform="translate(80,16) scale(1.3733333333333)"><rect width="6" height="6"></rect></g>
<g transform="translate(88,16) scale(1.3733333333333)"><rect width="6" height="6"></rect></g>
<g transform="translate(104,16) scale(1.3733333333333)"><rect width="6" height="6"></rect></g>
<g transform="translate(112,16) scale(1.3733333333333)"><rect width="6" height="6"></rect></g>
<g transform="translate(120,16) scale(1.3733333333333)"><rect width="6" height="6"></rect></g>
<g transform="translate(160,16) scale(1.3733333333333)"><rect width="6" height="6"></rect></g>
<g transform="translate(168,16) scale(1.3733333333333)"><rect width="6" height="6"></rect></g>
<g transform="translate(200,16) scale(1.3733333333333)"><rect width="6" height="6"></rect></g>
<g transform="translate(216,16) scale(1.3733333333333)"><rect width="6" height="6"></rect></g>
<g transform="translate(240,16) scale(1.3733333333333)"><rect width="6" height="6"></rect></g>
<g transform="translate(256,16) scale(1.3733333333333)"><rect width="6" height="6"></rect></g>
<g transform="translate(264,16) scale(1.3733333333333)"><rect width="6" height="6"></rect></g>
<g transform="translate(80,24) scale(1.3733333333333)"><rect width="6" height="6"></rect></g>
<g transform="translate(104,24) scale(1.3733333333333)"><rect width="6" height="6"></rect></g>
<g transform="translate(112,24) scale(1.3733333333333)"><rect width="6" height="6"></rect></g>
<g transform="translate(144,24) scale(1.3733333333333)"><rect width="6" height="6"></rect></g>
<g transform="translate(152,24) scale(1.3733333333333)"><rect width="6" height="6"></rect></g>
<g transform="translate(168,24) scale(1.3733333333333)"><rect width="6" height="6"></rect></g>
<g transform="translate(216,24) scale(1.3733333333333)"><rect width="6" height="6"></rect></g>
<g transform="translate(232,24) scale(1.3733333333333)"><rect width="6" height="6"></rect></g>
<g transform="translate(240,24) scale(1.3733333333333)"><rect width="6" height="6"></rect></g>
<g transform="translate(248,24) scale(1.3733333333333)"><rect width="6" height="6"></rect></g>
<g transform="translate(256,24) scale(1.3733333333333)"><rect width="6" height="6"></rect></g>
<g transform="translate(272,24) scale(1.3733333333333)"><rect width="6" height="6"></rect></g>
<g transform="translate(80,32) scale(1.3733333333333)"><rect width="6" height="6"></rect></g>
<g transform="translate(88,32) scale(1.3733333333333)"><rect width="6" height="6"></rect></g>
<g transform="translate(96,32) scale(1.3733333333333)"><rect width="6" height="6"></rect></g>
<g transform="translate(120,32) scale(1.3733333333333)"><rect width="6" height="6"></rect></g>
<g transform="translate(128,32) scale(1.3733333333333)"><rect width="6" height="6"></rect></g>
<g transform="translate(152,32) scale(1.3733333333333)"><rect width="6" height="6"></rect></g>
<g transform="translate(160,32) scale(1.3733333333333)"><rect width="6" height="6"></rect></g>
<g transform="translate(176,32) scale(1.3733333333333)"><rect width="6" height="6"></rect></g>
<g transform="translate(184,32) scale(1.3733333333333)"><rect width="6" height="6"></rect></g>
<g transform="translate(192,32) scale(1.3733333333333)"><rect width="6" height="6"></rect></g>
<g transform="translate(224,32) scale(1.3733333333333)"><rect width="6" height="6"></rect></g>
<g transform="translate(240,32) scale(1.3733333333333)"><rect width="6" height="6"></rect></g>
<g transform="translate(256,32) scale(1.3733333333333)"><rect width="6" height="6"></rect></g>
<g transform="translate(264,32) scale(1.3733333333333)"><rect width="6" height="6"></rect></g>
<g transform="translate(88,40) scale(1.3733333333333)"><rect width="6" height="6"></rect></g>
<g transform="translate(104,40) scale(1.3733333333333)"><rect width="6" height="6"></rect></g>
<g transform="translate(120,40) scale(1.3733333333333)"><rect width="6" height="6"></rect></g>
<g transform="translate(136,40) scale(1.3733333333333)"><rect width="6" height="6"></rect></g>
<g transform="translate(160,40) scale(1.3733333333333)"><rect width="6" height="6"></rect></g>
<g transform="translate(176,40) scale(1.3733333333333)"><rect width="6" height="6"></rect></g>
<g transform="translate(192,40) scale(1.3733333333333)"><rect width="6" height="6"></rect></g>
<g transform="translate(200,40) scale(1.3733333333333)"><rect width="6" height="6"></rect></g>
<g transform="translate(208,40) scale(1.3733333333333)"><rect width="6" height="6"></rect></g>
<g transform="translate(248,40) scale(1.3733333333333)"><rect width="6" height="6"></rect></g>
<g transform="translate(88,48) scale(1.3733333333333)"><rect width="6" height="6"></rect></g>
<g transform="translate(96,48) scale(1.3733333333333)"><rect width="6" height="6"></rect></g>
<g transform="translate(104,48) scale(1.3733333333333)"><rect width="6" height="6"></rect></g>
<g transform="translate(120,48) scale(1.3733333333333)"><rect width="6" height="6"></rect></g>
<g transform="translate(136,48) scale(1.3733333333333)"><rect width="6" height="6"></rect></g>
<g transform="translate(144,48) scale(1.3733333333333)"><rect width="6" height="6"></rect></g>
<g transform="translate(152,48) scale(1.3733333333333)"><rect width="6" height="6"></rect></g>
<g transform="translate(168,48) scale(1.3733333333333)"><rect width="6" height="6"></rect></g>
<g transform="translate(200,48) scale(1.3733333333333)"><rect width="6" height="6"></rect></g>
<g transform="translate(256,48) scale(1.3733333333333)"><rect width="6" height="6"></rect></g>
<g transform="translate(264,48) scale(1.3733333333333)"><rect width="6" height="6"></rect></g>
<g transform="translate(272,48) scale(1.3733333333333)"><rect width="6" height="6"></rect></g>
<g transform="translate(80,56) scale(1.3733333333333)"><rect width="6" height="6"></rect></g>
<g transform="translate(96,56) scale(1.3733333333333)"><rect width="6" height="6"></rect></g>
<g transform="translate(112,56) scale(1.3733333333333)"><rect width="6" height="6"></rect></g>
<g transform="translate(128,56) scale(1.3733333333333)"><rect width="6" height="6"></rect></g>
<g transform="translate(144,56) scale(1.3733333333333)"><rect width="6" height="6"></rect></g>
<g transform="translate(152,56) scale(1.3733333333333)"><rect width="6" height="6"></rect></g>
<g transform="translate(184,56) scale(1.3733333333333)"><rect width="6" height="6"></rect></g>
<g transform="translate(192,56) scale(1.3733333333333)"><rect width="6" height="6"></rect></g>
<g transform="translate(208,56) scale(1.3733333333333)"><rect width="6" height="6"></rect></g>
<g transform="translate(216,56) scale(1.3733333333333)"><rect width="6" height="6"></rect></g>
<g transform="translate(224,56) scale(1.3733333333333)"><rect width="6" height="6"></rect></g>
<g transform="translate(232,56) scale(1.3733333333333)"><rect width="6" height="6"></rect></g>
<g transform="translate(256,56) scale(1.3733333333333)"><rect width="6" height="6"></rect></g>
<g transform="translate(272,56) scale(1.3733333333333)"><rect width="6" height="6"></rect></g>
<g transform="translate(80,64) scale(1.3733333333333)"><rect width="6" height="6"></rect></g>
<g transform="translate(96,64) scale(1.3733333333333)"><rect width="6" height="6"></rect></g>
<g transform="translate(112,64) scale(1.3733333333333)"><rect width="6" height="6"></rect></g>
<g transform="translate(128,64) scale(1.3733333333333)"><rect width="6" height="6"></rect></g>
<g transform="translate(144,64) scale(1.3733333333333)"><rect width="6" height="6"></rect></g>
<g transform="translate(160,64) scale(1.3733333333333)"><rect width="6" height="6"></rect></g>
<g transform="translate(176,64) scale(1.3733333333333)"><rect width="6" height="6"></rect></g>
<g transform="translate(192,64) scale(1.3733333333333)"><rect width="6" height="6"></rect></g>
<g transform="translate(208,64) scale(1.3733333333333)"><rect width="6" height="6"></rect></g>
<g transform="translate(224,64) scale(1.3733333333333)"><rect width="6" height="6"></rect></g>
<g transform="translate(240,64) scale(1.3733333333333)"><rect width="6" height="6"></rect></g>
<g transform="translate(256,64) scale(1.3733333333333)"><rect width="6" height="6"></rect></g>
<g transform="translate(272,64) scale(1.3733333333333)"><rect width="6" height="6"></rect></g>
<g transform="translate(80,72) scale(1.3733333333333)"><rect width="6" height="6"></rect></g>
<g transform="translate(88,72) scale(1.3733333333333)"><rect width="6" height="6"></rect></g>
<g transform="translate(96,72) scale(1.3733333333333)"><rect width="6" height="6"></rect></g>
<g transform="translate(104,72) scale(1.3733333333333)"><rect width="6" height="6"></rect></g>
<g transform="translate(136,72) scale(1.3733333333333)"><rect width="6" height="6"></rect></g>
<g transform="translate(152,72) scale(1.3733333333333)"><rect width="6" height="6"></rect></g>
<g transform="translate(168,72) scale(1.3733333333333)"><rect width="6" height="6"></rect></g>
<g transform="translate(176,72) scale(1.3733333333333)"><rect width="6" height="6"></rect></g>
<g transform="translate(184,72) scale(1.3733333333333)"><rect width="6" height="6"></rect></g>
<g transform="translate(192,72) scale(1.3733333333333)"><rect width="6" height="6"></rect></g>
<g transform="translate(200,72) scale(1.3733333333333)"><rect width="6" height="6"></rect></g>
<g transform="translate(224,72) scale(1.3733333333333)"><rect width="6" height="6"></rect></g>
<g transform="translate(264,72) scale(1.3733333333333)"><rect width="6" height="6"></rect></g>
<g transform="translate(272,72) scale(1.3733333333333)"><rect width="6" height="6"></rect></g>
<g transform="translate(32,80) scale(1.3733333333333)"><rect width="6" height="6"></rect></g>
<g transform="translate(40,80) scale(1.3733333333333)"><rect width="6" height="6"></rect></g>
<g transform="translate(48,80) scale(1.3733333333333)"><rect width="6" height="6"></rect></g>
<g transform="translate(64,80) scale(1.3733333333333)"><rect width="6" height="6"></rect></g>
<g transform="translate(80,80) scale(1.3733333333333)"><rect width="6" height="6"></rect></g>
<g transform="translate(120,80) scale(1.3733333333333)"><rect width="6" height="6"></rect></g>
<g transform="translate(144,80) scale(1.3733333333333)"><rect width="6" height="6"></rect></g>
<g transform="translate(160,80) scale(1.3733333333333)"><rect width="6" height="6"></rect></g>
<g transform="translate(168,80) scale(1.3733333333333)"><rect width="6" height="6"></rect></g>
<g transform="translate(184,80) scale(1.3733333333333)"><rect width="6" height="6"></rect></g>
<g transform="translate(192,80) scale(1.3733333333333)"><rect width="6" height="6"></rect></g>
<g transform="translate(208,80) scale(1.3733333333333)"><rect width="6" height="6"></rect></g>
<g transform="translate(224,80) scale(1.3733333333333)"><rect width="6" height="6"></rect></g>
<g transform="translate(232,80) scale(1.3733333333333)"><rect width="6" height="6"></rect></g>
<g transform="translate(248,80) scale(1.3733333333333)"><rect width="6" height="6"></rect></g>
<g transform="translate(280,80) scale(1.3733333333333)"><rect width="6" height="6"></rect></g>
<g transform="translate(288,80) scale(1.3733333333333)"><rect width="6" height="6"></rect></g>
<g transform="translate(296,80) scale(1.3733333333333)"><rect width="6" height="6"></rect></g>
<g transform="translate(320,80) scale(1.3733333333333)"><rect width="6" height="6"></rect></g>
<g transform="translate(328,80) scale(1.3733333333333)"><rect width="6" height="6"></rect></g>
<g transform="translate(336,80) scale(1.3733333333333)"><rect width="6" height="6"></rect></g>
<g transform="translate(24,88) scale(1.3733333333333)"><rect width="6" height="6"></rect></g>
<g transform="translate(32,88) scale(1.3733333333333)"><rect width="6" height="6"></rect></g>
<g transform="translate(40,88) scale(1.3733333333333)"><rect width="6" height="6"></rect></g>
<g transform="translate(48,88) scale(1.3733333333333)"><rect width="6" height="6"></rect></g>
<g transform="translate(80,88) scale(1.3733333333333)"><rect width="6" height="6"></rect></g>
<g transform="translate(88,88) scale(1.3733333333333)"><rect width="6" height="6"></rect></g>
<g transform="translate(96,88) scale(1.3733333333333)"><rect width="6" height="6"></rect></g>
<g transform="translate(152,88) scale(1.3733333333333)"><rect width="6" height="6"></rect></g>
<g transform="translate(160,88) scale(1.3733333333333)"><rect width="6" height="6"></rect></g>
<g transform="translate(176,88) scale(1.3733333333333)"><rect width="6" height="6"></rect></g>
<g transform="translate(208,88) scale(1.3733333333333)"><rect width="6" height="6"></rect></g>
<g transform="translate(224,88) scale(1.3733333333333)"><rect width="6" height="6"></rect></g>
<g transform="translate(240,88) scale(1.3733333333333)"><rect width="6" height="6"></rect></g>
<g transform="translate(248,88) scale(1.3733333333333)"><rect width="6" height="6"></rect></g>
<g transform="translate(264,88) scale(1.3733333333333)"><rect width="6" height="6"></rect></g>
<g transform="translate(272,88) scale(1.3733333333333)"><rect width="6" height="6"></rect></g>
<g transform="translate(280,88) scale(1.3733333333333)"><rect width="6" height="6"></rect></g>
<g transform="translate(288,88) scale(1.3733333333333)"><rect width="6" height="6"></rect></g>
<g transform="translate(296,88) scale(1.3733333333333)"><rect width="6" height="6"></rect></g>
<g transform="translate(304,88) scale(1.3733333333333)"><rect width="6" height="6"></rect></g>
<g transform="translate(320,88) scale(1.3733333333333)"><rect width="6" height="6"></rect></g>
<g transform="translate(328,88) scale(1.3733333333333)"><rect width="6" height="6"></rect></g>
<g transform="translate(336,88) scale(1.3733333333333)"><rect width="6" height="6"></rect></g>
<g transform="translate(24,96) scale(1.3733333333333)"><rect width="6" height="6"></rect></g>
<g transform="translate(32,96) scale(1.3733333333333)"><rect width="6" height="6"></rect></g>
<g transform="translate(56,96) scale(1.3733333333333)"><rect width="6" height="6"></rect></g>
<g transform="translate(64,96) scale(1.3733333333333)"><rect width="6" height="6"></rect></g>
<g transform="translate(104,96) scale(1.3733333333333)"><rect width="6" height="6"></rect></g>
<g transform="translate(128,96) scale(1.3733333333333)"><rect width="6" height="6"></rect></g>
<g transform="translate(144,96) scale(1.3733333333333)"><rect width="6" height="6"></rect></g>
<g transform="translate(152,96) scale(1.3733333333333)"><rect width="6" height="6"></rect></g>
<g transform="translate(176,96) scale(1.3733333333333)"><rect width="6" height="6"></rect></g>
<g transform="translate(184,96) scale(1.3733333333333)"><rect width="6" height="6"></rect></g>
<g transform="translate(192,96) scale(1.3733333333333)"><rect width="6" height="6"></rect></g>
<g transform="translate(216,96) scale(1.3733333333333)"><rect width="6" height="6"></rect></g>
<g transform="translate(232,96) scale(1.3733333333333)"><rect width="6" height="6"></rect></g>
<g transform="translate(256,96) scale(1.3733333333333)"><rect width="6" height="6"></rect></g>
<g transform="translate(272,96) scale(1.3733333333333)"><rect width="6" height="6"></rect></g>
<g transform="translate(280,96) scale(1.3733333333333)"><rect width="6" height="6"></rect></g>
<g transform="translate(296,96) scale(1.3733333333333)"><rect width="6" height="6"></rect></g>
<g transform="translate(304,96) scale(1.3733333333333)"><rect width="6" height="6"></rect></g>
<g transform="translate(16,104) scale(1.3733333333333)"><rect width="6" height="6"></rect></g>
<g transform="translate(24,104) scale(1.3733333333333)"><rect width="6" height="6"></rect></g>
<g transform="translate(56,104) scale(1.3733333333333)"><rect width="6" height="6"></rect></g>
<g transform="translate(80,104) scale(1.3733333333333)"><rect width="6" height="6"></rect></g>
<g transform="translate(88,104) scale(1.3733333333333)"><rect width="6" height="6"></rect></g>
<g transform="translate(120,104) scale(1.3733333333333)"><rect width="6" height="6"></rect></g>
<g transform="translate(136,104) scale(1.3733333333333)"><rect width="6" height="6"></rect></g>
<g transform="translate(144,104) scale(1.3733333333333)"><rect width="6" height="6"></rect></g>
<g transform="translate(160,104) scale(1.3733333333333)"><rect width="6" height="6"></rect></g>
<g transform="translate(168,104) scale(1.3733333333333)"><rect width="6" height="6"></rect></g>
<g transform="translate(176,104) scale(1.3733333333333)"><rect width="6" height="6"></rect></g>
<g transform="translate(184,104) scale(1.3733333333333)"><rect width="6" height="6"></rect></g>
<g transform="translate(200,104) scale(1.3733333333333)"><rect width="6" height="6"></rect></g>
<g transform="translate(208,104) scale(1.3733333333333)"><rect width="6" height="6"></rect></g>
<g transform="translate(224,104) scale(1.3733333333333)"><rect width="6" height="6"></rect></g>
<g transform="translate(232,104) scale(1.3733333333333)"><rect width="6" height="6"></rect></g>
<g transform="translate(240,104) scale(1.3733333333333)"><rect width="6" height="6"></rect></g>
<g transform="translate(264,104) scale(1.3733333333333)"><rect width="6" height="6"></rect></g>
<g transform="translate(272,104) scale(1.3733333333333)"><rect width="6" height="6"></rect></g>
<g transform="translate(296,104) scale(1.3733333333333)"><rect width="6" height="6"></rect></g>
<g transform="translate(304,104) scale(1.3733333333333)"><rect width="6" height="6"></rect></g>
<g transform="translate(312,104) scale(1.3733333333333)"><rect width="6" height="6"></rect></g>
<g transform="translate(336,104) scale(1.3733333333333)"><rect width="6" height="6"></rect></g>
<g transform="translate(24,112) scale(1.3733333333333)"><rect width="6" height="6"></rect></g>
<g transform="translate(32,112) scale(1.3733333333333)"><rect width="6" height="6"></rect></g>
<g transform="translate(48,112) scale(1.3733333333333)"><rect width="6" height="6"></rect></g>
<g transform="translate(56,112) scale(1.3733333333333)"><rect width="6" height="6"></rect></g>
<g transform="translate(64,112) scale(1.3733333333333)"><rect width="6" height="6"></rect></g>
<g transform="translate(72,112) scale(1.3733333333333)"><rect width="6" height="6"></rect></g>
<g transform="translate(80,112) scale(1.3733333333333)"><rect width="6" height="6"></rect></g>
<g transform="translate(88,112) scale(1.3733333333333)"><rect width="6" height="6"></rect></g>
<g transform="translate(112,112) scale(1.3733333333333)"><rect width="6" height="6"></rect></g>
<g transform="translate(120,112) scale(1.3733333333333)"><rect width="6" height="6"></rect></g>
<g transform="translate(152,112) scale(1.3733333333333)"><rect width="6" height="6"></rect></g>
<g transform="translate(160,112) scale(1.3733333333333)"><rect width="6" height="6"></rect></g>
<g transform="translate(176,112) scale(1.3733333333333)"><rect width="6" height="6"></rect></g>
<g transform="translate(192,112) scale(1.3733333333333)"><rect width="6" height="6"></rect></g>
<g transform="translate(200,112) scale(1.3733333333333)"><rect width="6" height="6"></rect></g>
<g transform="translate(232,112) scale(1.3733333333333)"><rect width="6" height="6"></rect></g>
<g transform="translate(248,112) scale(1.3733333333333)"><rect width="6" height="6"></rect></g>
<g transform="translate(264,112) scale(1.3733333333333)"><rect width="6" height="6"></rect></g>
<g transform="translate(272,112) scale(1.3733333333333)"><rect width="6" height="6"></rect></g>
<g transform="translate(296,112) scale(1.3733333333333)"><rect width="6" height="6"></rect></g>
<g transform="translate(312,112) scale(1.3733333333333)"><rect width="6" height="6"></rect></g>
<g transform="translate(320,112) scale(1.3733333333333)"><rect width="6" height="6"></rect></g>
<g transform="translate(328,112) scale(1.3733333333333)"><rect width="6" height="6"></rect></g>
<g transform="translate(24,120) scale(1.3733333333333)"><rect width="6" height="6"></rect></g>
<g transform="translate(32,120) scale(1.3733333333333)"><rect width="6" height="6"></rect></g>
<g transform="translate(40,120) scale(1.3733333333333)"><rect width="6" height="6"></rect></g>
<g transform="translate(48,120) scale(1.3733333333333)"><rect width="6" height="6"></rect></g>
<g transform="translate(128,120) scale(1.3733333333333)"><rect width="6" height="6"></rect></g>
<g transform="translate(136,120) scale(1.3733333333333)"><rect width="6" height="6"></rect></g>
<g transform="translate(144,120) scale(1.3733333333333)"><rect width="6" height="6"></rect></g>
<g transform="translate(152,120) scale(1.3733333333333)"><rect width="6" height="6"></rect></g>
<g transform="translate(160,120) scale(1.3733333333333)"><rect width="6" height="6"></rect></g>
<g transform="translate(200,120) scale(1.3733333333333)"><rect width="6" height="6"></rect></g>
<g transform="translate(208,120) scale(1.3733333333333)"><rect width="6" height="6"></rect></g>
<g transform="translate(240,120) scale(1.3733333333333)"><rect width="6" height="6"></rect></g>
<g transform="translate(248,120) scale(1.3733333333333)"><rect width="6" height="6"></rect></g>
<g transform="translate(264,120) scale(1.3733333333333)"><rect width="6" height="6"></rect></g>
<g transform="translate(272,120) scale(1.3733333333333)"><rect width="6" height="6"></rect></g>
<g transform="translate(280,120) scale(1.3733333333333)"><rect width="6" height="6"></rect></g>
<g transform="translate(288,120) scale(1.3733333333333)"><rect width="6" height="6"></rect></g>
<g transform="translate(304,120) scale(1.3733333333333)"><rect width="6" height="6"></rect></g>
<g transform="translate(328,120) scale(1.3733333333333)"><rect width="6" height="6"></rect></g>
<g transform="translate(336,120) scale(1.3733333333333)"><rect width="6" height="6"></rect></g>
<g transform="translate(24,128) scale(1.3733333333333)"><rect width="6" height="6"></rect></g>
<g transform="translate(32,128) scale(1.3733333333333)"><rect width="6" height="6"></rect></g>
<g transform="translate(40,128) scale(1.3733333333333)"><rect width="6" height="6"></rect></g>
<g transform="translate(64,128) scale(1.3733333333333)"><rect width="6" height="6"></rect></g>
<g transform="translate(72,128) scale(1.3733333333333)"><rect width="6" height="6"></rect></g>
<g transform="translate(80,128) scale(1.3733333333333)"><rect width="6" height="6"></rect></g>
<g transform="translate(88,128) scale(1.3733333333333)"><rect width="6" height="6"></rect></g>
<g transform="translate(112,128) scale(1.3733333333333)"><rect width="6" height="6"></rect></g>
<g transform="translate(232,128) scale(1.3733333333333)"><rect width="6" height="6"></rect></g>
<g transform="translate(248,128) scale(1.3733333333333)"><rect width="6" height="6"></rect></g>
<g transform="translate(272,128) scale(1.3733333333333)"><rect width="6" height="6"></rect></g>
<g transform="translate(280,128) scale(1.3733333333333)"><rect width="6" height="6"></rect></g>
<g transform="translate(296,128) scale(1.3733333333333)"><rect width="6" height="6"></rect></g>
<g transform="translate(304,128) scale(1.3733333333333)"><rect width="6" height="6"></rect></g>
<g transform="translate(312,128) scale(1.3733333333333)"><rect width="6" height="6"></rect></g>
<g transform="translate(320,128) scale(1.3733333333333)"><rect width="6" height="6"></rect></g>
<g transform="translate(40,136) scale(1.3733333333333)"><rect width="6" height="6"></rect></g>
<g transform="translate(48,136) scale(1.3733333333333)"><rect width="6" height="6"></rect></g>
<g transform="translate(56,136) scale(1.3733333333333)"><rect width="6" height="6"></rect></g>
<g transform="translate(72,136) scale(1.3733333333333)"><rect width="6" height="6"></rect></g>
<g transform="translate(120,136) scale(1.3733333333333)"><rect width="6" height="6"></rect></g>
<g transform="translate(232,136) scale(1.3733333333333)"><rect width="6" height="6"></rect></g>
<g transform="translate(288,136) scale(1.3733333333333)"><rect width="6" height="6"></rect></g>
<g transform="translate(312,136) scale(1.3733333333333)"><rect width="6" height="6"></rect></g>
<g transform="translate(24,144) scale(1.3733333333333)"><rect width="6" height="6"></rect></g>
<g transform="translate(56,144) scale(1.3733333333333)"><rect width="6" height="6"></rect></g>
<g transform="translate(64,144) scale(1.3733333333333)"><rect width="6" height="6"></rect></g>
<g transform="translate(72,144) scale(1.3733333333333)"><rect width="6" height="6"></rect></g>
<g transform="translate(80,144) scale(1.3733333333333)"><rect width="6" height="6"></rect></g>
<g transform="translate(104,144) scale(1.3733333333333)"><rect width="6" height="6"></rect></g>
<g transform="translate(112,144) scale(1.3733333333333)"><rect width="6" height="6"></rect></g>
<g transform="translate(232,144) scale(1.3733333333333)"><rect width="6" height="6"></rect></g>
<g transform="translate(248,144) scale(1.3733333333333)"><rect width="6" height="6"></rect></g>
<g transform="translate(280,144) scale(1.3733333333333)"><rect width="6" height="6"></rect></g>
<g transform="translate(296,144) scale(1.3733333333333)"><rect width="6" height="6"></rect></g>
<g transform="translate(320,144) scale(1.3733333333333)"><rect width="6" height="6"></rect></g>
<g transform="translate(328,144) scale(1.3733333333333)"><rect width="6" height="6"></rect></g>
<g transform="translate(336,144) scale(1.3733333333333)"><rect width="6" height="6"></rect></g>
<g transform="translate(16,152) scale(1.3733333333333)"><rect width="6" height="6"></rect></g>
<g transform="translate(48,152) scale(1.3733333333333)"><rect width="6" height="6"></rect></g>
<g transform="translate(56,152) scale(1.3733333333333)"><rect width="6" height="6"></rect></g>
<g transform="translate(72,152) scale(1.3733333333333)"><rect width="6" height="6"></rect></g>
<g transform="translate(104,152) scale(1.3733333333333)"><rect width="6" height="6"></rect></g>
<g transform="translate(248,152) scale(1.3733333333333)"><rect width="6" height="6"></rect></g>
<g transform="translate(256,152) scale(1.3733333333333)"><rect width="6" height="6"></rect></g>
<g transform="translate(264,152) scale(1.3733333333333)"><rect width="6" height="6"></rect></g>
<g transform="translate(272,152) scale(1.3733333333333)"><rect width="6" height="6"></rect></g>
<g transform="translate(288,152) scale(1.3733333333333)"><rect width="6" height="6"></rect></g>
<g transform="translate(296,152) scale(1.3733333333333)"><rect width="6" height="6"></rect></g>
<g transform="translate(304,152) scale(1.3733333333333)"><rect width="6" height="6"></rect></g>
<g transform="translate(312,152) scale(1.3733333333333)"><rect width="6" height="6"></rect></g>
<g transform="translate(320,152) scale(1.3733333333333)"><rect width="6" height="6"></rect></g>
<g transform="translate(336,152) scale(1.3733333333333)"><rect width="6" height="6"></rect></g>
<g transform="translate(16,160) scale(1.3733333333333)"><rect width="6" height="6"></rect></g>
<g transform="translate(24,160) scale(1.3733333333333)"><rect width="6" height="6"></rect></g>
<g transform="translate(40,160) scale(1.3733333333333)"><rect width="6" height="6"></rect></g>
<g transform="translate(64,160) scale(1.3733333333333)"><rect width="6" height="6"></rect></g>
<g transform="translate(72,160) scale(1.3733333333333)"><rect width="6" height="6"></rect></g>
<g transform="translate(80,160) scale(1.3733333333333)"><rect width="6" height="6"></rect></g>
<g transform="translate(112,160) scale(1.3733333333333)"><rect width="6" height="6"></rect></g>
<g transform="translate(120,160) scale(1.3733333333333)"><rect width="6" height="6"></rect></g>
<g transform="translate(232,160) scale(1.3733333333333)"><rect width="6" height="6"></rect></g>
<g transform="translate(240,160) scale(1.3733333333333)"><rect width="6" height="6"></rect></g>
<g transform="translate(256,160) scale(1.3733333333333)"><rect width="6" height="6"></rect></g>
<g transform="translate(272,160) scale(1.3733333333333)"><rect width="6" height="6"></rect></g>
<g transform="translate(280,160) scale(1.3733333333333)"><rect width="6" height="6"></rect></g>
<g transform="translate(304,160) scale(1.3733333333333)"><rect width="6" height="6"></rect></g>
<g transform="translate(312,160) scale(1.3733333333333)"><rect width="6" height="6"></rect></g>
<g transform="translate(320,160) scale(1.3733333333333)"><rect width="6" height="6"></rect></g>
<g transform="translate(16,168) scale(1.3733333333333)"><rect width="6" height="6"></rect></g>
<g transform="translate(24,168) scale(1.3733333333333)"><rect width="6" height="6"></rect></g>
<g transform="translate(32,168) scale(1.3733333333333)"><rect width="6" height="6"></rect></g>
<g transform="translate(40,168) scale(1.3733333333333)"><rect width="6" height="6"></rect></g>
<g transform="translate(48,168) scale(1.3733333333333)"><rect width="6" height="6"></rect></g>
<g transform="translate(80,168) scale(1.3733333333333)"><rect width="6" height="6"></rect></g>
<g transform="translate(96,168) scale(1.3733333333333)"><rect width="6" height="6"></rect></g>
<g transform="translate(280,168) scale(1.3733333333333)"><rect width="6" height="6"></rect></g>
<g transform="translate(304,168) scale(1.3733333333333)"><rect width="6" height="6"></rect></g>
<g transform="translate(328,168) scale(1.3733333333333)"><rect width="6" height="6"></rect></g>
<g transform="translate(336,168) scale(1.3733333333333)"><rect width="6" height="6"></rect></g>
<g transform="translate(16,176) scale(1.3733333333333)"><rect width="6" height="6"></rect></g>
<g transform="translate(64,176) scale(1.3733333333333)"><rect width="6" height="6"></rect></g>
<g transform="translate(72,176) scale(1.3733333333333)"><rect width="6" height="6"></rect></g>
<g transform="translate(80,176) scale(1.3733333333333)"><rect width="6" height="6"></rect></g>
<g transform="translate(112,176) scale(1.3733333333333)"><rect width="6" height="6"></rect></g>
<g transform="translate(248,176) scale(1.3733333333333)"><rect width="6" height="6"></rect></g>
<g transform="translate(256,176) scale(1.3733333333333)"><rect width="6" height="6"></rect></g>
<g transform="translate(264,176) scale(1.3733333333333)"><rect width="6" height="6"></rect></g>
<g transform="translate(280,176) scale(1.3733333333333)"><rect width="6" height="6"></rect></g>
<g transform="translate(320,176) scale(1.3733333333333)"><rect width="6" height="6"></rect></g>
<g transform="translate(336,176) scale(1.3733333333333)"><rect width="6" height="6"></rect></g>
<g transform="translate(16,184) scale(1.3733333333333)"><rect width="6" height="6"></rect></g>
<g transform="translate(32,184) scale(1.3733333333333)"><rect width="6" height="6"></rect></g>
<g transform="translate(40,184) scale(1.3733333333333)"><rect width="6" height="6"></rect></g>
<g transform="translate(96,184) scale(1.3733333333333)"><rect width="6" height="6"></rect></g>
<g transform="translate(104,184) scale(1.3733333333333)"><rect width="6" height="6"></rect></g>
<g transform="translate(120,184) scale(1.3733333333333)"><rect width="6" height="6"></rect></g>
<g transform="translate(240,184) scale(1.3733333333333)"><rect width="6" height="6"></rect></g>
<g transform="translate(256,184) scale(1.3733333333333)"><rect width="6" height="6"></rect></g>
<g transform="translate(264,184) scale(1.3733333333333)"><rect width="6" height="6"></rect></g>
<g transform="translate(272,184) scale(1.3733333333333)"><rect width="6" height="6"></rect></g>
<g transform="translate(288,184) scale(1.3733333333333)"><rect width="6" height="6"></rect></g>
<g transform="translate(296,184) scale(1.3733333333333)"><rect width="6" height="6"></rect></g>
<g transform="translate(304,184) scale(1.3733333333333)"><rect width="6" height="6"></rect></g>
<g transform="translate(320,184) scale(1.3733333333333)"><rect width="6" height="6"></rect></g>
<g transform="translate(328,184) scale(1.3733333333333)"><rect width="6" height="6"></rect></g>
<g transform="translate(336,184) scale(1.3733333333333)"><rect width="6" height="6"></rect></g>
<g transform="translate(16,192) scale(1.3733333333333)"><rect width="6" height="6"></rect></g>
<g transform="translate(24,192) scale(1.3733333333333)"><rect width="6" height="6"></rect></g>
<g transform="translate(56,192) scale(1.3733333333333)"><rect width="6" height="6"></rect></g>
<g transform="translate(64,192) scale(1.3733333333333)"><rect width="6" height="6"></rect></g>
<g transform="translate(96,192) scale(1.3733333333333)"><rect width="6" height="6"></rect></g>
<g transform="translate(104,192) scale(1.3733333333333)"><rect width="6" height="6"></rect></g>
<g transform="translate(232,192) scale(1.3733333333333)"><rect width="6" height="6"></rect></g>
<g transform="translate(240,192) scale(1.3733333333333)"><rect width="6" height="6"></rect></g>
<g transform="translate(248,192) scale(1.3733333333333)"><rect width="6" height="6"></rect></g>
<g transform="translate(256,192) scale(1.3733333333333)"><rect width="6" height="6"></rect></g>
<g transform="translate(280,192) scale(1.3733333333333)"><rect width="6" height="6"></rect></g>
<g transform="translate(304,192) scale(1.3733333333333)"><rect width="6" height="6"></rect></g>
<g transform="translate(320,192) scale(1.3733333333333)"><rect width="6" height="6"></rect></g>
<g transform="translate(48,200) scale(1.3733333333333)"><rect width="6" height="6"></rect></g>
<g transform="translate(72,200) scale(1.3733333333333)"><rect width="6" height="6"></rect></g>
<g transform="translate(96,200) scale(1.3733333333333)"><rect width="6" height="6"></rect></g>
<g transform="translate(104,200) scale(1.3733333333333)"><rect width="6" height="6"></rect></g>
<g transform="translate(112,200) scale(1.3733333333333)"><rect width="6" height="6"></rect></g>
<g transform="translate(120,200) scale(1.3733333333333)"><rect width="6" height="6"></rect></g>
<g transform="translate(232,200) scale(1.3733333333333)"><rect width="6" height="6"></rect></g>
<g transform="translate(240,200) scale(1.3733333333333)"><rect width="6" height="6"></rect></g>
<g transform="translate(264,200) scale(1.3733333333333)"><rect width="6" height="6"></rect></g>
<g transform="translate(272,200) scale(1.3733333333333)"><rect width="6" height="6"></rect></g>
<g transform="translate(280,200) scale(1.3733333333333)"><rect width="6" height="6"></rect></g>
<g transform="translate(288,200) scale(1.3733333333333)"><rect width="6" height="6"></rect></g>
<g transform="translate(296,200) scale(1.3733333333333)"><rect width="6" height="6"></rect></g>
<g transform="translate(304,200) scale(1.3733333333333)"><rect width="6" height="6"></rect></g>
<g transform="translate(312,200) scale(1.3733333333333)"><rect width="6" height="6"></rect></g>
<g transform="translate(328,200) scale(1.3733333333333)"><rect width="6" height="6"></rect></g>
<g transform="translate(336,200) scale(1.3733333333333)"><rect width="6" height="6"></rect></g>
<g transform="translate(32,208) scale(1.3733333333333)"><rect width="6" height="6"></rect></g>
<g transform="translate(40,208) scale(1.3733333333333)"><rect width="6" height="6"></rect></g>
<g transform="translate(64,208) scale(1.3733333333333)"><rect width="6" height="6"></rect></g>
<g transform="translate(72,208) scale(1.3733333333333)"><rect width="6" height="6"></rect></g>
<g transform="translate(80,208) scale(1.3733333333333)"><rect width="6" height="6"></rect></g>
<g transform="translate(88,208) scale(1.3733333333333)"><rect width="6" height="6"></rect></g>
<g transform="translate(112,208) scale(1.3733333333333)"><rect width="6" height="6"></rect></g>
<g transform="translate(120,208) scale(1.3733333333333)"><rect width="6" height="6"></rect></g>
<g transform="translate(232,208) scale(1.3733333333333)"><rect width="6" height="6"></rect></g>
<g transform="translate(248,208) scale(1.3733333333333)"><rect width="6" height="6"></rect></g>
<g transform="translate(264,208) scale(1.3733333333333)"><rect width="6" height="6"></rect></g>
<g transform="translate(296,208) scale(1.3733333333333)"><rect width="6" height="6"></rect></g>
<g transform="translate(320,208) scale(1.3733333333333)"><rect width="6" height="6"></rect></g>
<g transform="translate(328,208) scale(1.3733333333333)"><rect width="6" height="6"></rect></g>
<g transform="translate(336,208) scale(1.3733333333333)"><rect width="6" height="6"></rect></g>
<g transform="translate(24,216) scale(1.3733333333333)"><rect width="6" height="6"></rect></g>
<g transform="translate(32,216) scale(1.3733333333333)"><rect width="6" height="6"></rect></g>
<g transform="translate(40,216) scale(1.3733333333333)"><rect width="6" height="6"></rect></g>
<g transform="translate(48,216) scale(1.3733333333333)"><rect width="6" height="6"></rect></g>
<g transform="translate(56,216) scale(1.3733333333333)"><rect width="6" height="6"></rect></g>
<g transform="translate(80,216) scale(1.3733333333333)"><rect width="6" height="6"></rect></g>
<g transform="translate(240,216) scale(1.3733333333333)"><rect width="6" height="6"></rect></g>
<g transform="translate(256,216) scale(1.3733333333333)"><rect width="6" height="6"></rect></g>
<g transform="translate(264,216) scale(1.3733333333333)"><rect width="6" height="6"></rect></g>
<g transform="translate(280,216) scale(1.3733333333333)"><rect width="6" height="6"></rect></g>
<g transform="translate(288,216) scale(1.3733333333333)"><rect width="6" height="6"></rect></g>
<g transform="translate(296,216) scale(1.3733333333333)"><rect width="6" height="6"></rect></g>
<g transform="translate(304,216) scale(1.3733333333333)"><rect width="6" height="6"></rect></g>
<g transform="translate(312,216) scale(1.3733333333333)"><rect width="6" height="6"></rect></g>
<g transform="translate(336,216) scale(1.3733333333333)"><rect width="6" height="6"></rect></g>
<g transform="translate(40,224) scale(1.3733333333333)"><rect width="6" height="6"></rect></g>
<g transform="translate(48,224) scale(1.3733333333333)"><rect width="6" height="6"></rect></g>
<g transform="translate(56,224) scale(1.3733333333333)"><rect width="6" height="6"></rect></g>
<g transform="translate(64,224) scale(1.3733333333333)"><rect width="6" height="6"></rect></g>
<g transform="translate(80,224) scale(1.3733333333333)"><rect width="6" height="6"></rect></g>
<g transform="translate(112,224) scale(1.3733333333333)"><rect width="6" height="6"></rect></g>
<g transform="translate(232,224) scale(1.3733333333333)"><rect width="6" height="6"></rect></g>
<g transform="translate(240,224) scale(1.3733333333333)"><rect width="6" height="6"></rect></g>
<g transform="translate(272,224) scale(1.3733333333333)"><rect width="6" height="6"></rect></g>
<g transform="translate(288,224) scale(1.3733333333333)"><rect width="6" height="6"></rect></g>
<g transform="translate(304,224) scale(1.3733333333333)"><rect width="6" height="6"></rect></g>
<g transform="translate(80,232) scale(1.3733333333333)"><rect width="6" height="6"></rect></g>
<g transform="translate(88,232) scale(1.3733333333333)"><rect width="6" height="6"></rect></g>
<g transform="translate(104,232) scale(1.3733333333333)"><rect width="6" height="6"></rect></g>
<g transform="translate(120,232) scale(1.3733333333333)"><rect width="6" height="6"></rect></g>
<g transform="translate(136,232) scale(1.3733333333333)"><rect width="6" height="6"></rect></g>
<g transform="translate(160,232) scale(1.3733333333333)"><rect width="6" height="6"></rect></g>
<g transform="translate(200,232) scale(1.3733333333333)"><rect width="6" height="6"></rect></g>
<g transform="translate(224,232) scale(1.3733333333333)"><rect width="6" height="6"></rect></g>
<g transform="translate(232,232) scale(1.3733333333333)"><rect width="6" height="6"></rect></g>
<g transform="translate(256,232) scale(1.3733333333333)"><rect width="6" height="6"></rect></g>
<g transform="translate(264,232) scale(1.3733333333333)"><rect width="6" height="6"></rect></g>
<g transform="translate(272,232) scale(1.3733333333333)"><rect width="6" height="6"></rect></g>
<g transform="translate(280,232) scale(1.3733333333333)"><rect width="6" height="6"></rect></g>
<g transform="translate(288,232) scale(1.3733333333333)"><rect width="6" height="6"></rect></g>
<g transform="translate(304,232) scale(1.3733333333333)"><rect width="6" height="6"></rect></g>
<g transform="translate(312,232) scale(1.3733333333333)"><rect width="6" height="6"></rect></g>
<g transform="translate(16,240) scale(1.3733333333333)"><rect width="6" height="6"></rect></g>
<g transform="translate(24,240) scale(1.3733333333333)"><rect width="6" height="6"></rect></g>
<g transform="translate(32,240) scale(1.3733333333333)"><rect width="6" height="6"></rect></g>
<g transform="translate(40,240) scale(1.3733333333333)"><rect width="6" height="6"></rect></g>
<g transform="translate(56,240) scale(1.3733333333333)"><rect width="6" height="6"></rect></g>
<g transform="translate(64,240) scale(1.3733333333333)"><rect width="6" height="6"></rect></g>
<g transform="translate(96,240) scale(1.3733333333333)"><rect width="6" height="6"></rect></g>
<g transform="translate(120,240) scale(1.3733333333333)"><rect width="6" height="6"></rect></g>
<g transform="translate(136,240) scale(1.3733333333333)"><rect width="6" height="6"></rect></g>
<g transform="translate(160,240) scale(1.3733333333333)"><rect width="6" height="6"></rect></g>
<g transform="translate(176,240) scale(1.3733333333333)"><rect width="6" height="6"></rect></g>
<g transform="translate(184,240) scale(1.3733333333333)"><rect width="6" height="6"></rect></g>
<g transform="translate(192,240) scale(1.3733333333333)"><rect width="6" height="6"></rect></g>
<g transform="translate(232,240) scale(1.3733333333333)"><rect width="6" height="6"></rect></g>
<g transform="translate(240,240) scale(1.3733333333333)"><rect width="6" height="6"></rect></g>
<g transform="translate(248,240) scale(1.3733333333333)"><rect width="6" height="6"></rect></g>
<g transform="translate(264,240) scale(1.3733333333333)"><rect width="6" height="6"></rect></g>
<g transform="translate(312,240) scale(1.3733333333333)"><rect width="6" height="6"></rect></g>
<g transform="translate(320,240) scale(1.3733333333333)"><rect width="6" height="6"></rect></g>
<g transform="translate(328,240) scale(1.3733333333333)"><rect width="6" height="6"></rect></g>
<g transform="translate(16,248) scale(1.3733333333333)"><rect width="6" height="6"></rect></g>
<g transform="translate(32,248) scale(1.3733333333333)"><rect width="6" height="6"></rect></g>
<g transform="translate(40,248) scale(1.3733333333333)"><rect width="6" height="6"></rect></g>
<g transform="translate(48,248) scale(1.3733333333333)"><rect width="6" height="6"></rect></g>
<g transform="translate(88,248) scale(1.3733333333333)"><rect width="6" height="6"></rect></g>
<g transform="translate(120,248) scale(1.3733333333333)"><rect width="6" height="6"></rect></g>
<g transform="translate(128,248) scale(1.3733333333333)"><rect width="6" height="6"></rect></g>
<g transform="translate(144,248) scale(1.3733333333333)"><rect width="6" height="6"></rect></g>
<g transform="translate(152,248) scale(1.3733333333333)"><rect width="6" height="6"></rect></g>
<g transform="translate(160,248) scale(1.3733333333333)"><rect width="6" height="6"></rect></g>
<g transform="translate(168,248) scale(1.3733333333333)"><rect width="6" height="6"></rect></g>
<g transform="translate(192,248) scale(1.3733333333333)"><rect width="6" height="6"></rect></g>
<g transform="translate(208,248) scale(1.3733333333333)"><rect width="6" height="6"></rect></g>
<g transform="translate(216,248) scale(1.3733333333333)"><rect width="6" height="6"></rect></g>
<g transform="translate(224,248) scale(1.3733333333333)"><rect width="6" height="6"></rect></g>
<g transform="translate(240,248) scale(1.3733333333333)"><rect width="6" height="6"></rect></g>
<g transform="translate(256,248) scale(1.3733333333333)"><rect width="6" height="6"></rect></g>
<g transform="translate(264,248) scale(1.3733333333333)"><rect width="6" height="6"></rect></g>
<g transform="translate(272,248) scale(1.3733333333333)"><rect width="6" height="6"></rect></g>
<g transform="translate(288,248) scale(1.3733333333333)"><rect width="6" height="6"></rect></g>
<g transform="translate(296,248) scale(1.3733333333333)"><rect width="6" height="6"></rect></g>
<g transform="translate(304,248) scale(1.3733333333333)"><rect width="6" height="6"></rect></g>
<g transform="translate(328,248) scale(1.3733333333333)"><rect width="6" height="6"></rect></g>
<g transform="translate(336,248) scale(1.3733333333333)"><rect width="6" height="6"></rect></g>
<g transform="translate(16,256) scale(1.3733333333333)"><rect width="6" height="6"></rect></g>
<g transform="translate(32,256) scale(1.3733333333333)"><rect width="6" height="6"></rect></g>
<g transform="translate(64,256) scale(1.3733333333333)"><rect width="6" height="6"></rect></g>
<g transform="translate(72,256) scale(1.3733333333333)"><rect width="6" height="6"></rect></g>
<g transform="translate(88,256) scale(1.3733333333333)"><rect width="6" height="6"></rect></g>
<g transform="translate(96,256) scale(1.3733333333333)"><rect width="6" height="6"></rect></g>
<g transform="translate(104,256) scale(1.3733333333333)"><rect width="6" height="6"></rect></g>
<g transform="translate(112,256) scale(1.3733333333333)"><rect width="6" height="6"></rect></g>
<g transform="translate(144,256) scale(1.3733333333333)"><rect width="6" height="6"></rect></g>
<g transform="translate(152,256) scale(1.3733333333333)"><rect width="6" height="6"></rect></g>
<g transform="translate(176,256) scale(1.3733333333333)"><rect width="6" height="6"></rect></g>
<g transform="translate(184,256) scale(1.3733333333333)"><rect width="6" height="6"></rect></g>
<g transform="translate(192,256) scale(1.3733333333333)"><rect width="6" height="6"></rect></g>
<g transform="translate(200,256) scale(1.3733333333333)"><rect width="6" height="6"></rect></g>
<g transform="translate(208,256) scale(1.3733333333333)"><rect width="6" height="6"></rect></g>
<g transform="translate(232,256) scale(1.3733333333333)"><rect width="6" height="6"></rect></g>
<g transform="translate(240,256) scale(1.3733333333333)"><rect width="6" height="6"></rect></g>
<g transform="translate(256,256) scale(1.3733333333333)"><rect width="6" height="6"></rect></g>
<g transform="translate(272,256) scale(1.3733333333333)"><rect width="6" height="6"></rect></g>
<g transform="translate(280,256) scale(1.3733333333333)"><rect width="6" height="6"></rect></g>
<g transform="translate(288,256) scale(1.3733333333333)"><rect width="6" height="6"></rect></g>
<g transform="translate(312,256) scale(1.3733333333333)"><rect width="6" height="6"></rect></g>
<g transform="translate(16,264) scale(1.3733333333333)"><rect width="6" height="6"></rect></g>
<g transform="translate(32,264) scale(1.3733333333333)"><rect width="6" height="6"></rect></g>
<g transform="translate(40,264) scale(1.3733333333333)"><rect width="6" height="6"></rect></g>
<g transform="translate(48,264) scale(1.3733333333333)"><rect width="6" height="6"></rect></g>
<g transform="translate(56,264) scale(1.3733333333333)"><rect width="6" height="6"></rect></g>
<g transform="translate(96,264) scale(1.3733333333333)"><rect width="6" height="6"></rect></g>
<g transform="translate(104,264) scale(1.3733333333333)"><rect width="6" height="6"></rect></g>
<g transform="translate(112,264) scale(1.3733333333333)"><rect width="6" height="6"></rect></g>
<g transform="translate(128,264) scale(1.3733333333333)"><rect width="6" height="6"></rect></g>
<g transform="translate(160,264) scale(1.3733333333333)"><rect width="6" height="6"></rect></g>
<g transform="translate(168,264) scale(1.3733333333333)"><rect width="6" height="6"></rect></g>
<g transform="translate(200,264) scale(1.3733333333333)"><rect width="6" height="6"></rect></g>
<g transform="translate(216,264) scale(1.3733333333333)"><rect width="6" height="6"></rect></g>
<g transform="translate(224,264) scale(1.3733333333333)"><rect width="6" height="6"></rect></g>
<g transform="translate(232,264) scale(1.3733333333333)"><rect width="6" height="6"></rect></g>
<g transform="translate(264,264) scale(1.3733333333333)"><rect width="6" height="6"></rect></g>
<g transform="translate(280,264) scale(1.3733333333333)"><rect width="6" height="6"></rect></g>
<g transform="translate(288,264) scale(1.3733333333333)"><rect width="6" height="6"></rect></g>
<g transform="translate(304,264) scale(1.3733333333333)"><rect width="6" height="6"></rect></g>
<g transform="translate(312,264) scale(1.3733333333333)"><rect width="6" height="6"></rect></g>
<g transform="translate(328,264) scale(1.3733333333333)"><rect width="6" height="6"></rect></g>
<g transform="translate(336,264) scale(1.3733333333333)"><rect width="6" height="6"></rect></g>
<g transform="translate(16,272) scale(1.3733333333333)"><rect width="6" height="6"></rect></g>
<g transform="translate(64,272) scale(1.3733333333333)"><rect width="6" height="6"></rect></g>
<g transform="translate(96,272) scale(1.3733333333333)"><rect width="6" height="6"></rect></g>
<g transform="translate(104,272) scale(1.3733333333333)"><rect width="6" height="6"></rect></g>
<g transform="translate(112,272) scale(1.3733333333333)"><rect width="6" height="6"></rect></g>
<g transform="translate(136,272) scale(1.3733333333333)"><rect width="6" height="6"></rect></g>
<g transform="translate(160,272) scale(1.3733333333333)"><rect width="6" height="6"></rect></g>
<g transform="translate(176,272) scale(1.3733333333333)"><rect width="6" height="6"></rect></g>
<g transform="translate(192,272) scale(1.3733333333333)"><rect width="6" height="6"></rect></g>
<g transform="translate(208,272) scale(1.3733333333333)"><rect width="6" height="6"></rect></g>
<g transform="translate(216,272) scale(1.3733333333333)"><rect width="6" height="6"></rect></g>
<g transform="translate(232,272) scale(1.3733333333333)"><rect width="6" height="6"></rect></g>
<g transform="translate(248,272) scale(1.3733333333333)"><rect width="6" height="6"></rect></g>
<g transform="translate(272,272) scale(1.3733333333333)"><rect width="6" height="6"></rect></g>
<g transform="translate(280,272) scale(1.3733333333333)"><rect width="6" height="6"></rect></g>
<g transform="translate(288,272) scale(1.3733333333333)"><rect width="6" height="6"></rect></g>
<g transform="translate(296,272) scale(1.3733333333333)"><rect width="6" height="6"></rect></g>
<g transform="translate(304,272) scale(1.3733333333333)"><rect width="6" height="6"></rect></g>
<g transform="translate(312,272) scale(1.3733333333333)"><rect width="6" height="6"></rect></g>
<g transform="translate(320,272) scale(1.3733333333333)"><rect width="6" height="6"></rect></g>
<g transform="translate(336,272) scale(1.3733333333333)"><rect width="6" height="6"></rect></g>
<g transform="translate(80,280) scale(1.3733333333333)"><rect width="6" height="6"></rect></g>
<g transform="translate(96,280) scale(1.3733333333333)"><rect width="6" height="6"></rect></g>
<g transform="translate(104,280) scale(1.3733333333333)"><rect width="6" height="6"></rect></g>
<g transform="translate(144,280) scale(1.3733333333333)"><rect width="6" height="6"></rect></g>
<g transform="translate(168,280) scale(1.3733333333333)"><rect width="6" height="6"></rect></g>
<g transform="translate(184,280) scale(1.3733333333333)"><rect width="6" height="6"></rect></g>
<g transform="translate(240,280) scale(1.3733333333333)"><rect width="6" height="6"></rect></g>
<g transform="translate(248,280) scale(1.3733333333333)"><rect width="6" height="6"></rect></g>
<g transform="translate(272,280) scale(1.3733333333333)"><rect width="6" height="6"></rect></g>
<g transform="translate(304,280) scale(1.3733333333333)"><rect width="6" height="6"></rect></g>
<g transform="translate(312,280) scale(1.3733333333333)"><rect width="6" height="6"></rect></g>
<g transform="translate(320,280) scale(1.3733333333333)"><rect width="6" height="6"></rect></g>
<g transform="translate(328,280) scale(1.3733333333333)"><rect width="6" height="6"></rect></g>
<g transform="translate(336,280) scale(1.3733333333333)"><rect width="6" height="6"></rect></g>
<g transform="translate(112,288) scale(1.3733333333333)"><rect width="6" height="6"></rect></g>
<g transform="translate(120,288) scale(1.3733333333333)"><rect width="6" height="6"></rect></g>
<g transform="translate(128,288) scale(1.3733333333333)"><rect width="6" height="6"></rect></g>
<g transform="translate(136,288) scale(1.3733333333333)"><rect width="6" height="6"></rect></g>
<g transform="translate(168,288) scale(1.3733333333333)"><rect width="6" height="6"></rect></g>
<g transform="translate(216,288) scale(1.3733333333333)"><rect width="6" height="6"></rect></g>
<g transform="translate(224,288) scale(1.3733333333333)"><rect width="6" height="6"></rect></g>
<g transform="translate(232,288) scale(1.3733333333333)"><rect width="6" height="6"></rect></g>
<g transform="translate(248,288) scale(1.3733333333333)"><rect width="6" height="6"></rect></g>
<g transform="translate(264,288) scale(1.3733333333333)"><rect width="6" height="6"></rect></g>
<g transform="translate(272,288) scale(1.3733333333333)"><rect width="6" height="6"></rect></g>
<g transform="translate(288,288) scale(1.3733333333333)"><rect width="6" height="6"></rect></g>
<g transform="translate(304,288) scale(1.3733333333333)"><rect width="6" height="6"></rect></g>
<g transform="translate(312,288) scale(1.3733333333333)"><rect width="6" height="6"></rect></g>
<g transform="translate(320,288) scale(1.3733333333333)"><rect width="6" height="6"></rect></g>
<g transform="translate(88,296) scale(1.3733333333333)"><rect width="6" height="6"></rect></g>
<g transform="translate(96,296) scale(1.3733333333333)"><rect width="6" height="6"></rect></g>
<g transform="translate(104,296) scale(1.3733333333333)"><rect width="6" height="6"></rect></g>
<g transform="translate(120,296) scale(1.3733333333333)"><rect width="6" height="6"></rect></g>
<g transform="translate(168,296) scale(1.3733333333333)"><rect width="6" height="6"></rect></g>
<g transform="translate(184,296) scale(1.3733333333333)"><rect width="6" height="6"></rect></g>
<g transform="translate(192,296) scale(1.3733333333333)"><rect width="6" height="6"></rect></g>
<g transform="translate(200,296) scale(1.3733333333333)"><rect width="6" height="6"></rect></g>
<g transform="translate(232,296) scale(1.3733333333333)"><rect width="6" height="6"></rect></g>
<g transform="translate(256,296) scale(1.3733333333333)"><rect width="6" height="6"></rect></g>
<g transform="translate(264,296) scale(1.3733333333333)"><rect width="6" height="6"></rect></g>
<g transform="translate(272,296) scale(1.3733333333333)"><rect width="6" height="6"></rect></g>
<g transform="translate(304,296) scale(1.3733333333333)"><rect width="6" height="6"></rect></g>
<g transform="translate(312,296) scale(1.3733333333333)"><rect width="6" height="6"></rect></g>
<g transform="translate(80,304) scale(1.3733333333333)"><rect width="6" height="6"></rect></g>
<g transform="translate(144,304) scale(1.3733333333333)"><rect width="6" height="6"></rect></g>
<g transform="translate(152,304) scale(1.3733333333333)"><rect width="6" height="6"></rect></g>
<g transform="translate(176,304) scale(1.3733333333333)"><rect width="6" height="6"></rect></g>
<g transform="translate(184,304) scale(1.3733333333333)"><rect width="6" height="6"></rect></g>
<g transform="translate(216,304) scale(1.3733333333333)"><rect width="6" height="6"></rect></g>
<g transform="translate(224,304) scale(1.3733333333333)"><rect width="6" height="6"></rect></g>
<g transform="translate(232,304) scale(1.3733333333333)"><rect width="6" height="6"></rect></g>
<g transform="translate(240,304) scale(1.3733333333333)"><rect width="6" height="6"></rect></g>
<g transform="translate(248,304) scale(1.3733333333333)"><rect width="6" height="6"></rect></g>
<g transform="translate(272,304) scale(1.3733333333333)"><rect width="6" height="6"></rect></g>
<g transform="translate(280,304) scale(1.3733333333333)"><rect width="6" height="6"></rect></g>
<g transform="translate(288,304) scale(1.3733333333333)"><rect width="6" height="6"></rect></g>
<g transform="translate(296,304) scale(1.3733333333333)"><rect width="6" height="6"></rect></g>
<g transform="translate(304,304) scale(1.3733333333333)"><rect width="6" height="6"></rect></g>
<g transform="translate(312,304) scale(1.3733333333333)"><rect width="6" height="6"></rect></g>
<g transform="translate(328,304) scale(1.3733333333333)"><rect width="6" height="6"></rect></g>
<g transform="translate(80,312) scale(1.3733333333333)"><rect width="6" height="6"></rect></g>
<g transform="translate(96,312) scale(1.3733333333333)"><rect width="6" height="6"></rect></g>
<g transform="translate(104,312) scale(1.3733333333333)"><rect width="6" height="6"></rect></g>
<g transform="translate(112,312) scale(1.3733333333333)"><rect width="6" height="6"></rect></g>
<g transform="translate(120,312) scale(1.3733333333333)"><rect width="6" height="6"></rect></g>
<g transform="translate(128,312) scale(1.3733333333333)"><rect width="6" height="6"></rect></g>
<g transform="translate(144,312) scale(1.3733333333333)"><rect width="6" height="6"></rect></g>
<g transform="translate(160,312) scale(1.3733333333333)"><rect width="6" height="6"></rect></g>
<g transform="translate(168,312) scale(1.3733333333333)"><rect width="6" height="6"></rect></g>
<g transform="translate(216,312) scale(1.3733333333333)"><rect width="6" height="6"></rect></g>
<g transform="translate(240,312) scale(1.3733333333333)"><rect width="6" height="6"></rect></g>
<g transform="translate(248,312) scale(1.3733333333333)"><rect width="6" height="6"></rect></g>
<g transform="translate(256,312) scale(1.3733333333333)"><rect width="6" height="6"></rect></g>
<g transform="translate(280,312) scale(1.3733333333333)"><rect width="6" height="6"></rect></g>
<g transform="translate(296,312) scale(1.3733333333333)"><rect width="6" height="6"></rect></g>
<g transform="translate(336,312) scale(1.3733333333333)"><rect width="6" height="6"></rect></g>
<g transform="translate(80,320) scale(1.3733333333333)"><rect width="6" height="6"></rect></g>
<g transform="translate(88,320) scale(1.3733333333333)"><rect width="6" height="6"></rect></g>
<g transform="translate(96,320) scale(1.3733333333333)"><rect width="6" height="6"></rect></g>
<g transform="translate(136,320) scale(1.3733333333333)"><rect width="6" height="6"></rect></g>
<g transform="translate(144,320) scale(1.3733333333333)"><rect width="6" height="6"></rect></g>
<g transform="translate(152,320) scale(1.3733333333333)"><rect width="6" height="6"></rect></g>
<g transform="translate(160,320) scale(1.3733333333333)"><rect width="6" height="6"></rect></g>
<g transform="translate(168,320) scale(1.3733333333333)"><rect width="6" height="6"></rect></g>
<g transform="translate(176,320) scale(1.3733333333333)"><rect width="6" height="6"></rect></g>
<g transform="translate(192,320) scale(1.3733333333333)"><rect width="6" height="6"></rect></g>
<g transform="translate(200,320) scale(1.3733333333333)"><rect width="6" height="6"></rect></g>
<g transform="translate(232,320) scale(1.3733333333333)"><rect width="6" height="6"></rect></g>
<g transform="translate(248,320) scale(1.3733333333333)"><rect width="6" height="6"></rect></g>
<g transform="translate(256,320) scale(1.3733333333333)"><rect width="6" height="6"></rect></g>
<g transform="translate(264,320) scale(1.3733333333333)"><rect width="6" height="6"></rect></g>
<g transform="translate(272,320) scale(1.3733333333333)"><rect width="6" height="6"></rect></g>
<g transform="translate(280,320) scale(1.3733333333333)"><rect width="6" height="6"></rect></g>
<g transform="translate(288,320) scale(1.3733333333333)"><rect width="6" height="6"></rect></g>
<g transform="translate(296,320) scale(1.3733333333333)"><rect width="6" height="6"></rect></g>
<g transform="translate(304,320) scale(1.3733333333333)"><rect width="6" height="6"></rect></g>
<g transform="translate(312,320) scale(1.3733333333333)"><rect width="6" height="6"></rect></g>
<g transform="translate(328,320) scale(1.3733333333333)"><rect width="6" height="6"></rect></g>
<g transform="translate(96,328) scale(1.3733333333333)"><rect width="6" height="6"></rect></g>
<g transform="translate(120,328) scale(1.3733333333333)"><rect width="6" height="6"></rect></g>
<g transform="translate(144,328) scale(1.3733333333333)"><rect width="6" height="6"></rect></g>
<g transform="translate(152,328) scale(1.3733333333333)"><rect width="6" height="6"></rect></g>
<g transform="translate(160,328) scale(1.3733333333333)"><rect width="6" height="6"></rect></g>
<g transform="translate(208,328) scale(1.3733333333333)"><rect width="6" height="6"></rect></g>
<g transform="translate(216,328) scale(1.3733333333333)"><rect width="6" height="6"></rect></g>
<g transform="translate(232,328) scale(1.3733333333333)"><rect width="6" height="6"></rect></g>
<g transform="translate(256,328) scale(1.3733333333333)"><rect width="6" height="6"></rect></g>
<g transform="translate(272,328) scale(1.3733333333333)"><rect width="6" height="6"></rect></g>
<g transform="translate(304,328) scale(1.3733333333333)"><rect width="6" height="6"></rect></g>
<g transform="translate(312,328) scale(1.3733333333333)"><rect width="6" height="6"></rect></g>
<g transform="translate(328,328) scale(1.3733333333333)"><rect width="6" height="6"></rect></g>
<g transform="translate(96,336) scale(1.3733333333333)"><rect width="6" height="6"></rect></g>
<g transform="translate(104,336) scale(1.3733333333333)"><rect width="6" height="6"></rect></g>
<g transform="translate(112,336) scale(1.3733333333333)"><rect width="6" height="6"></rect></g>
<g transform="translate(120,336) scale(1.3733333333333)"><rect width="6" height="6"></rect></g>
<g transform="translate(136,336) scale(1.3733333333333)"><rect width="6" height="6"></rect></g>
<g transform="translate(144,336) scale(1.3733333333333)"><rect width="6" height="6"></rect></g>
<g transform="translate(152,336) scale(1.3733333333333)"><rect width="6" height="6"></rect></g>
<g transform="translate(176,336) scale(1.3733333333333)"><rect width="6" height="6"></rect></g>
<g transform="translate(184,336) scale(1.3733333333333)"><rect width="6" height="6"></rect></g>
<g transform="translate(192,336) scale(1.3733333333333)"><rect width="6" height="6"></rect></g>
<g transform="translate(216,336) scale(1.3733333333333)"><rect width="6" height="6"></rect></g>
<g transform="translate(248,336) scale(1.3733333333333)"><rect width="6" height="6"></rect></g>
<g transform="translate(288,336) scale(1.3733333333333)"><rect width="6" height="6"></rect></g>
<g transform="translate(296,336) scale(1.3733333333333)"><rect width="6" height="6"></rect></g>
<g transform="translate(304,336) scale(1.3733333333333)"><rect width="6" height="6"></rect></g>
<g transform="translate(320,336) scale(1.3733333333333)"><rect width="6" height="6"></rect></g>
<g transform="translate(16,16)"><g transform="scale(4)"><path d="M0,0v14h14V0H0z M12,12H2V2h10V12z"></path></g></g>
<g transform="translate(288,16)"><g transform="scale(4)"><path d="M0,0v14h14V0H0z M12,12H2V2h10V12z"></path></g></g>
<g transform="translate(16,288)"><g transform="scale(4)"><path d="M0,0v14h14V0H0z M12,12H2V2h10V12z"></path></g></g>
<g transform="translate(32,32)"><g transform="scale(4)"><rect width="6" height="6"></rect></g></g>
<g transform="translate(304,32)"><g transform="scale(4)"><rect width="6" height="6"></rect></g></g>
<g transform="translate(32,304)"><g transform="scale(4)"><rect width="6" height="6"></rect></g></g>
</g>
            <image xlink:href="/Public/images/asj_2.webp" width="104" height="104" x="128" y="128"></image>
</svg>