<!--https://www.the-qrcode-generator.com/-->
<?xml version="1.0" encoding="UTF-8"?>
<svg id="Sqr" version="1.1" baseProfile="tiny" xmlns="http://www.w3.org/2000/svg" width="40" height="40">
<rect shape-rendering="optimizeSpeed"  x="0" y="0" width="40" height="40" fill="white" />
<rect shape-rendering="optimizeSpeed"  x="5" y="5" width="1" height="1" fill="black" />
<rect shape-rendering="optimizeSpeed"  x="6" y="5" width="1" height="1" fill="black" />
<rect shape-rendering="optimizeSpeed"  x="7" y="5" width="1" height="1" fill="black" />
<rect shape-rendering="optimizeSpeed"  x="8" y="5" width="1" height="1" fill="black" />
<rect shape-rendering="optimizeSpeed"  x="9" y="5" width="1" height="1" fill="black" />
<rect shape-rendering="optimizeSpeed"  x="10" y="5" width="1" height="1" fill="black" />
<rect shape-rendering="optimizeSpeed"  x="11" y="5" width="1" height="1" fill="black" />
<rect shape-rendering="optimizeSpeed"  x="16" y="5" width="1" height="1" fill="black" />
<rect shape-rendering="optimizeSpeed"  x="17" y="5" width="1" height="1" fill="black" />
<rect shape-rendering="optimizeSpeed"  x="19" y="5" width="1" height="1" fill="black" />
<rect shape-rendering="optimizeSpeed"  x="22" y="5" width="1" height="1" fill="black" />
<rect shape-rendering="optimizeSpeed"  x="23" y="5" width="1" height="1" fill="black" />
<rect shape-rendering="optimizeSpeed"  x="24" y="5" width="1" height="1" fill="black" />
<rect shape-rendering="optimizeSpeed"  x="25" y="5" width="1" height="1" fill="black" />
<rect shape-rendering="optimizeSpeed"  x="27" y="5" width="1" height="1" fill="black" />
<rect shape-rendering="optimizeSpeed"  x="28" y="5" width="1" height="1" fill="black" />
<rect shape-rendering="optimizeSpeed"  x="29" y="5" width="1" height="1" fill="black" />
<rect shape-rendering="optimizeSpeed"  x="30" y="5" width="1" height="1" fill="black" />
<rect shape-rendering="optimizeSpeed"  x="31" y="5" width="1" height="1" fill="black" />
<rect shape-rendering="optimizeSpeed"  x="32" y="5" width="1" height="1" fill="black" />
<rect shape-rendering="optimizeSpeed"  x="33" y="5" width="1" height="1" fill="black" />
<rect shape-rendering="optimizeSpeed"  x="5" y="6" width="1" height="1" fill="black" />
<rect shape-rendering="optimizeSpeed"  x="11" y="6" width="1" height="1" fill="black" />
<rect shape-rendering="optimizeSpeed"  x="13" y="6" width="1" height="1" fill="black" />
<rect shape-rendering="optimizeSpeed"  x="15" y="6" width="1" height="1" fill="black" />
<rect shape-rendering="optimizeSpeed"  x="20" y="6" width="1" height="1" fill="black" />
<rect shape-rendering="optimizeSpeed"  x="23" y="6" width="1" height="1" fill="black" />
<rect shape-rendering="optimizeSpeed"  x="27" y="6" width="1" height="1" fill="black" />
<rect shape-rendering="optimizeSpeed"  x="33" y="6" width="1" height="1" fill="black" />
<rect shape-rendering="optimizeSpeed"  x="5" y="7" width="1" height="1" fill="black" />
<rect shape-rendering="optimizeSpeed"  x="7" y="7" width="1" height="1" fill="black" />
<rect shape-rendering="optimizeSpeed"  x="8" y="7" width="1" height="1" fill="black" />
<rect shape-rendering="optimizeSpeed"  x="9" y="7" width="1" height="1" fill="black" />
<rect shape-rendering="optimizeSpeed"  x="11" y="7" width="1" height="1" fill="black" />
<rect shape-rendering="optimizeSpeed"  x="14" y="7" width="1" height="1" fill="black" />
<rect shape-rendering="optimizeSpeed"  x="15" y="7" width="1" height="1" fill="black" />
<rect shape-rendering="optimizeSpeed"  x="17" y="7" width="1" height="1" fill="black" />
<rect shape-rendering="optimizeSpeed"  x="19" y="7" width="1" height="1" fill="black" />
<rect shape-rendering="optimizeSpeed"  x="24" y="7" width="1" height="1" fill="black" />
<rect shape-rendering="optimizeSpeed"  x="27" y="7" width="1" height="1" fill="black" />
<rect shape-rendering="optimizeSpeed"  x="29" y="7" width="1" height="1" fill="black" />
<rect shape-rendering="optimizeSpeed"  x="30" y="7" width="1" height="1" fill="black" />
<rect shape-rendering="optimizeSpeed"  x="31" y="7" width="1" height="1" fill="black" />
<rect shape-rendering="optimizeSpeed"  x="33" y="7" width="1" height="1" fill="black" />
<rect shape-rendering="optimizeSpeed"  x="5" y="8" width="1" height="1" fill="black" />
<rect shape-rendering="optimizeSpeed"  x="7" y="8" width="1" height="1" fill="black" />
<rect shape-rendering="optimizeSpeed"  x="8" y="8" width="1" height="1" fill="black" />
<rect shape-rendering="optimizeSpeed"  x="9" y="8" width="1" height="1" fill="black" />
<rect shape-rendering="optimizeSpeed"  x="11" y="8" width="1" height="1" fill="black" />
<rect shape-rendering="optimizeSpeed"  x="13" y="8" width="1" height="1" fill="black" />
<rect shape-rendering="optimizeSpeed"  x="14" y="8" width="1" height="1" fill="black" />
<rect shape-rendering="optimizeSpeed"  x="16" y="8" width="1" height="1" fill="black" />
<rect shape-rendering="optimizeSpeed"  x="17" y="8" width="1" height="1" fill="black" />
<rect shape-rendering="optimizeSpeed"  x="18" y="8" width="1" height="1" fill="black" />
<rect shape-rendering="optimizeSpeed"  x="20" y="8" width="1" height="1" fill="black" />
<rect shape-rendering="optimizeSpeed"  x="21" y="8" width="1" height="1" fill="black" />
<rect shape-rendering="optimizeSpeed"  x="22" y="8" width="1" height="1" fill="black" />
<rect shape-rendering="optimizeSpeed"  x="23" y="8" width="1" height="1" fill="black" />
<rect shape-rendering="optimizeSpeed"  x="27" y="8" width="1" height="1" fill="black" />
<rect shape-rendering="optimizeSpeed"  x="29" y="8" width="1" height="1" fill="black" />
<rect shape-rendering="optimizeSpeed"  x="30" y="8" width="1" height="1" fill="black" />
<rect shape-rendering="optimizeSpeed"  x="31" y="8" width="1" height="1" fill="black" />
<rect shape-rendering="optimizeSpeed"  x="33" y="8" width="1" height="1" fill="black" />
<rect shape-rendering="optimizeSpeed"  x="5" y="9" width="1" height="1" fill="black" />
<rect shape-rendering="optimizeSpeed"  x="7" y="9" width="1" height="1" fill="black" />
<rect shape-rendering="optimizeSpeed"  x="8" y="9" width="1" height="1" fill="black" />
<rect shape-rendering="optimizeSpeed"  x="9" y="9" width="1" height="1" fill="black" />
<rect shape-rendering="optimizeSpeed"  x="11" y="9" width="1" height="1" fill="black" />
<rect shape-rendering="optimizeSpeed"  x="16" y="9" width="1" height="1" fill="black" />
<rect shape-rendering="optimizeSpeed"  x="18" y="9" width="1" height="1" fill="black" />
<rect shape-rendering="optimizeSpeed"  x="22" y="9" width="1" height="1" fill="black" />
<rect shape-rendering="optimizeSpeed"  x="23" y="9" width="1" height="1" fill="black" />
<rect shape-rendering="optimizeSpeed"  x="24" y="9" width="1" height="1" fill="black" />
<rect shape-rendering="optimizeSpeed"  x="25" y="9" width="1" height="1" fill="black" />
<rect shape-rendering="optimizeSpeed"  x="27" y="9" width="1" height="1" fill="black" />
<rect shape-rendering="optimizeSpeed"  x="29" y="9" width="1" height="1" fill="black" />
<rect shape-rendering="optimizeSpeed"  x="30" y="9" width="1" height="1" fill="black" />
<rect shape-rendering="optimizeSpeed"  x="31" y="9" width="1" height="1" fill="black" />
<rect shape-rendering="optimizeSpeed"  x="33" y="9" width="1" height="1" fill="black" />
<rect shape-rendering="optimizeSpeed"  x="5" y="10" width="1" height="1" fill="black" />
<rect shape-rendering="optimizeSpeed"  x="11" y="10" width="1" height="1" fill="black" />
<rect shape-rendering="optimizeSpeed"  x="13" y="10" width="1" height="1" fill="black" />
<rect shape-rendering="optimizeSpeed"  x="15" y="10" width="1" height="1" fill="black" />
<rect shape-rendering="optimizeSpeed"  x="17" y="10" width="1" height="1" fill="black" />
<rect shape-rendering="optimizeSpeed"  x="18" y="10" width="1" height="1" fill="black" />
<rect shape-rendering="optimizeSpeed"  x="19" y="10" width="1" height="1" fill="black" />
<rect shape-rendering="optimizeSpeed"  x="20" y="10" width="1" height="1" fill="black" />
<rect shape-rendering="optimizeSpeed"  x="22" y="10" width="1" height="1" fill="black" />
<rect shape-rendering="optimizeSpeed"  x="25" y="10" width="1" height="1" fill="black" />
<rect shape-rendering="optimizeSpeed"  x="27" y="10" width="1" height="1" fill="black" />
<rect shape-rendering="optimizeSpeed"  x="33" y="10" width="1" height="1" fill="black" />
<rect shape-rendering="optimizeSpeed"  x="5" y="11" width="1" height="1" fill="black" />
<rect shape-rendering="optimizeSpeed"  x="6" y="11" width="1" height="1" fill="black" />
<rect shape-rendering="optimizeSpeed"  x="7" y="11" width="1" height="1" fill="black" />
<rect shape-rendering="optimizeSpeed"  x="8" y="11" width="1" height="1" fill="black" />
<rect shape-rendering="optimizeSpeed"  x="9" y="11" width="1" height="1" fill="black" />
<rect shape-rendering="optimizeSpeed"  x="10" y="11" width="1" height="1" fill="black" />
<rect shape-rendering="optimizeSpeed"  x="11" y="11" width="1" height="1" fill="black" />
<rect shape-rendering="optimizeSpeed"  x="13" y="11" width="1" height="1" fill="black" />
<rect shape-rendering="optimizeSpeed"  x="15" y="11" width="1" height="1" fill="black" />
<rect shape-rendering="optimizeSpeed"  x="17" y="11" width="1" height="1" fill="black" />
<rect shape-rendering="optimizeSpeed"  x="19" y="11" width="1" height="1" fill="black" />
<rect shape-rendering="optimizeSpeed"  x="21" y="11" width="1" height="1" fill="black" />
<rect shape-rendering="optimizeSpeed"  x="23" y="11" width="1" height="1" fill="black" />
<rect shape-rendering="optimizeSpeed"  x="25" y="11" width="1" height="1" fill="black" />
<rect shape-rendering="optimizeSpeed"  x="27" y="11" width="1" height="1" fill="black" />
<rect shape-rendering="optimizeSpeed"  x="28" y="11" width="1" height="1" fill="black" />
<rect shape-rendering="optimizeSpeed"  x="29" y="11" width="1" height="1" fill="black" />
<rect shape-rendering="optimizeSpeed"  x="30" y="11" width="1" height="1" fill="black" />
<rect shape-rendering="optimizeSpeed"  x="31" y="11" width="1" height="1" fill="black" />
<rect shape-rendering="optimizeSpeed"  x="32" y="11" width="1" height="1" fill="black" />
<rect shape-rendering="optimizeSpeed"  x="33" y="11" width="1" height="1" fill="black" />
<rect shape-rendering="optimizeSpeed"  x="16" y="12" width="1" height="1" fill="black" />
<rect shape-rendering="optimizeSpeed"  x="17" y="12" width="1" height="1" fill="black" />
<rect shape-rendering="optimizeSpeed"  x="19" y="12" width="1" height="1" fill="black" />
<rect shape-rendering="optimizeSpeed"  x="21" y="12" width="1" height="1" fill="black" />
<rect shape-rendering="optimizeSpeed"  x="24" y="12" width="1" height="1" fill="black" />
<rect shape-rendering="optimizeSpeed"  x="25" y="12" width="1" height="1" fill="black" />
<rect shape-rendering="optimizeSpeed"  x="5" y="13" width="1" height="1" fill="black" />
<rect shape-rendering="optimizeSpeed"  x="6" y="13" width="1" height="1" fill="black" />
<rect shape-rendering="optimizeSpeed"  x="7" y="13" width="1" height="1" fill="black" />
<rect shape-rendering="optimizeSpeed"  x="8" y="13" width="1" height="1" fill="black" />
<rect shape-rendering="optimizeSpeed"  x="9" y="13" width="1" height="1" fill="black" />
<rect shape-rendering="optimizeSpeed"  x="11" y="13" width="1" height="1" fill="black" />
<rect shape-rendering="optimizeSpeed"  x="12" y="13" width="1" height="1" fill="black" />
<rect shape-rendering="optimizeSpeed"  x="13" y="13" width="1" height="1" fill="black" />
<rect shape-rendering="optimizeSpeed"  x="14" y="13" width="1" height="1" fill="black" />
<rect shape-rendering="optimizeSpeed"  x="15" y="13" width="1" height="1" fill="black" />
<rect shape-rendering="optimizeSpeed"  x="19" y="13" width="1" height="1" fill="black" />
<rect shape-rendering="optimizeSpeed"  x="20" y="13" width="1" height="1" fill="black" />
<rect shape-rendering="optimizeSpeed"  x="21" y="13" width="1" height="1" fill="black" />
<rect shape-rendering="optimizeSpeed"  x="22" y="13" width="1" height="1" fill="black" />
<rect shape-rendering="optimizeSpeed"  x="24" y="13" width="1" height="1" fill="black" />
<rect shape-rendering="optimizeSpeed"  x="26" y="13" width="1" height="1" fill="black" />
<rect shape-rendering="optimizeSpeed"  x="28" y="13" width="1" height="1" fill="black" />
<rect shape-rendering="optimizeSpeed"  x="30" y="13" width="1" height="1" fill="black" />
<rect shape-rendering="optimizeSpeed"  x="32" y="13" width="1" height="1" fill="black" />
<rect shape-rendering="optimizeSpeed"  x="6" y="14" width="1" height="1" fill="black" />
<rect shape-rendering="optimizeSpeed"  x="14" y="14" width="1" height="1" fill="black" />
<rect shape-rendering="optimizeSpeed"  x="16" y="14" width="1" height="1" fill="black" />
<rect shape-rendering="optimizeSpeed"  x="22" y="14" width="1" height="1" fill="black" />
<rect shape-rendering="optimizeSpeed"  x="23" y="14" width="1" height="1" fill="black" />
<rect shape-rendering="optimizeSpeed"  x="24" y="14" width="1" height="1" fill="black" />
<rect shape-rendering="optimizeSpeed"  x="25" y="14" width="1" height="1" fill="black" />
<rect shape-rendering="optimizeSpeed"  x="26" y="14" width="1" height="1" fill="black" />
<rect shape-rendering="optimizeSpeed"  x="27" y="14" width="1" height="1" fill="black" />
<rect shape-rendering="optimizeSpeed"  x="28" y="14" width="1" height="1" fill="black" />
<rect shape-rendering="optimizeSpeed"  x="29" y="14" width="1" height="1" fill="black" />
<rect shape-rendering="optimizeSpeed"  x="33" y="14" width="1" height="1" fill="black" />
<rect shape-rendering="optimizeSpeed"  x="6" y="15" width="1" height="1" fill="black" />
<rect shape-rendering="optimizeSpeed"  x="7" y="15" width="1" height="1" fill="black" />
<rect shape-rendering="optimizeSpeed"  x="10" y="15" width="1" height="1" fill="black" />
<rect shape-rendering="optimizeSpeed"  x="11" y="15" width="1" height="1" fill="black" />
<rect shape-rendering="optimizeSpeed"  x="12" y="15" width="1" height="1" fill="black" />
<rect shape-rendering="optimizeSpeed"  x="14" y="15" width="1" height="1" fill="black" />
<rect shape-rendering="optimizeSpeed"  x="20" y="15" width="1" height="1" fill="black" />
<rect shape-rendering="optimizeSpeed"  x="21" y="15" width="1" height="1" fill="black" />
<rect shape-rendering="optimizeSpeed"  x="25" y="15" width="1" height="1" fill="black" />
<rect shape-rendering="optimizeSpeed"  x="7" y="16" width="1" height="1" fill="black" />
<rect shape-rendering="optimizeSpeed"  x="9" y="16" width="1" height="1" fill="black" />
<rect shape-rendering="optimizeSpeed"  x="14" y="16" width="1" height="1" fill="black" />
<rect shape-rendering="optimizeSpeed"  x="15" y="16" width="1" height="1" fill="black" />
<rect shape-rendering="optimizeSpeed"  x="17" y="16" width="1" height="1" fill="black" />
<rect shape-rendering="optimizeSpeed"  x="19" y="16" width="1" height="1" fill="black" />
<rect shape-rendering="optimizeSpeed"  x="20" y="16" width="1" height="1" fill="black" />
<rect shape-rendering="optimizeSpeed"  x="25" y="16" width="1" height="1" fill="black" />
<rect shape-rendering="optimizeSpeed"  x="27" y="16" width="1" height="1" fill="black" />
<rect shape-rendering="optimizeSpeed"  x="28" y="16" width="1" height="1" fill="black" />
<rect shape-rendering="optimizeSpeed"  x="30" y="16" width="1" height="1" fill="black" />
<rect shape-rendering="optimizeSpeed"  x="32" y="16" width="1" height="1" fill="black" />
<rect shape-rendering="optimizeSpeed"  x="8" y="17" width="1" height="1" fill="black" />
<rect shape-rendering="optimizeSpeed"  x="11" y="17" width="1" height="1" fill="black" />
<rect shape-rendering="optimizeSpeed"  x="14" y="17" width="1" height="1" fill="black" />
<rect shape-rendering="optimizeSpeed"  x="17" y="17" width="1" height="1" fill="black" />
<rect shape-rendering="optimizeSpeed"  x="18" y="17" width="1" height="1" fill="black" />
<rect shape-rendering="optimizeSpeed"  x="19" y="17" width="1" height="1" fill="black" />
<rect shape-rendering="optimizeSpeed"  x="21" y="17" width="1" height="1" fill="black" />
<rect shape-rendering="optimizeSpeed"  x="22" y="17" width="1" height="1" fill="black" />
<rect shape-rendering="optimizeSpeed"  x="24" y="17" width="1" height="1" fill="black" />
<rect shape-rendering="optimizeSpeed"  x="30" y="17" width="1" height="1" fill="black" />
<rect shape-rendering="optimizeSpeed"  x="31" y="17" width="1" height="1" fill="black" />
<rect shape-rendering="optimizeSpeed"  x="7" y="18" width="1" height="1" fill="black" />
<rect shape-rendering="optimizeSpeed"  x="10" y="18" width="1" height="1" fill="black" />
<rect shape-rendering="optimizeSpeed"  x="15" y="18" width="1" height="1" fill="black" />
<rect shape-rendering="optimizeSpeed"  x="16" y="18" width="1" height="1" fill="black" />
<rect shape-rendering="optimizeSpeed"  x="19" y="18" width="1" height="1" fill="black" />
<rect shape-rendering="optimizeSpeed"  x="22" y="18" width="1" height="1" fill="black" />
<rect shape-rendering="optimizeSpeed"  x="23" y="18" width="1" height="1" fill="black" />
<rect shape-rendering="optimizeSpeed"  x="24" y="18" width="1" height="1" fill="black" />
<rect shape-rendering="optimizeSpeed"  x="25" y="18" width="1" height="1" fill="black" />
<rect shape-rendering="optimizeSpeed"  x="26" y="18" width="1" height="1" fill="black" />
<rect shape-rendering="optimizeSpeed"  x="27" y="18" width="1" height="1" fill="black" />
<rect shape-rendering="optimizeSpeed"  x="29" y="18" width="1" height="1" fill="black" />
<rect shape-rendering="optimizeSpeed"  x="33" y="18" width="1" height="1" fill="black" />
<rect shape-rendering="optimizeSpeed"  x="6" y="19" width="1" height="1" fill="black" />
<rect shape-rendering="optimizeSpeed"  x="7" y="19" width="1" height="1" fill="black" />
<rect shape-rendering="optimizeSpeed"  x="9" y="19" width="1" height="1" fill="black" />
<rect shape-rendering="optimizeSpeed"  x="10" y="19" width="1" height="1" fill="black" />
<rect shape-rendering="optimizeSpeed"  x="11" y="19" width="1" height="1" fill="black" />
<rect shape-rendering="optimizeSpeed"  x="12" y="19" width="1" height="1" fill="black" />
<rect shape-rendering="optimizeSpeed"  x="13" y="19" width="1" height="1" fill="black" />
<rect shape-rendering="optimizeSpeed"  x="15" y="19" width="1" height="1" fill="black" />
<rect shape-rendering="optimizeSpeed"  x="18" y="19" width="1" height="1" fill="black" />
<rect shape-rendering="optimizeSpeed"  x="20" y="19" width="1" height="1" fill="black" />
<rect shape-rendering="optimizeSpeed"  x="22" y="19" width="1" height="1" fill="black" />
<rect shape-rendering="optimizeSpeed"  x="28" y="19" width="1" height="1" fill="black" />
<rect shape-rendering="optimizeSpeed"  x="30" y="19" width="1" height="1" fill="black" />
<rect shape-rendering="optimizeSpeed"  x="31" y="19" width="1" height="1" fill="black" />
<rect shape-rendering="optimizeSpeed"  x="5" y="20" width="1" height="1" fill="black" />
<rect shape-rendering="optimizeSpeed"  x="7" y="20" width="1" height="1" fill="black" />
<rect shape-rendering="optimizeSpeed"  x="8" y="20" width="1" height="1" fill="black" />
<rect shape-rendering="optimizeSpeed"  x="9" y="20" width="1" height="1" fill="black" />
<rect shape-rendering="optimizeSpeed"  x="10" y="20" width="1" height="1" fill="black" />
<rect shape-rendering="optimizeSpeed"  x="12" y="20" width="1" height="1" fill="black" />
<rect shape-rendering="optimizeSpeed"  x="13" y="20" width="1" height="1" fill="black" />
<rect shape-rendering="optimizeSpeed"  x="14" y="20" width="1" height="1" fill="black" />
<rect shape-rendering="optimizeSpeed"  x="16" y="20" width="1" height="1" fill="black" />
<rect shape-rendering="optimizeSpeed"  x="17" y="20" width="1" height="1" fill="black" />
<rect shape-rendering="optimizeSpeed"  x="19" y="20" width="1" height="1" fill="black" />
<rect shape-rendering="optimizeSpeed"  x="20" y="20" width="1" height="1" fill="black" />
<rect shape-rendering="optimizeSpeed"  x="24" y="20" width="1" height="1" fill="black" />
<rect shape-rendering="optimizeSpeed"  x="25" y="20" width="1" height="1" fill="black" />
<rect shape-rendering="optimizeSpeed"  x="28" y="20" width="1" height="1" fill="black" />
<rect shape-rendering="optimizeSpeed"  x="29" y="20" width="1" height="1" fill="black" />
<rect shape-rendering="optimizeSpeed"  x="32" y="20" width="1" height="1" fill="black" />
<rect shape-rendering="optimizeSpeed"  x="6" y="21" width="1" height="1" fill="black" />
<rect shape-rendering="optimizeSpeed"  x="8" y="21" width="1" height="1" fill="black" />
<rect shape-rendering="optimizeSpeed"  x="10" y="21" width="1" height="1" fill="black" />
<rect shape-rendering="optimizeSpeed"  x="11" y="21" width="1" height="1" fill="black" />
<rect shape-rendering="optimizeSpeed"  x="13" y="21" width="1" height="1" fill="black" />
<rect shape-rendering="optimizeSpeed"  x="14" y="21" width="1" height="1" fill="black" />
<rect shape-rendering="optimizeSpeed"  x="18" y="21" width="1" height="1" fill="black" />
<rect shape-rendering="optimizeSpeed"  x="19" y="21" width="1" height="1" fill="black" />
<rect shape-rendering="optimizeSpeed"  x="21" y="21" width="1" height="1" fill="black" />
<rect shape-rendering="optimizeSpeed"  x="22" y="21" width="1" height="1" fill="black" />
<rect shape-rendering="optimizeSpeed"  x="24" y="21" width="1" height="1" fill="black" />
<rect shape-rendering="optimizeSpeed"  x="28" y="21" width="1" height="1" fill="black" />
<rect shape-rendering="optimizeSpeed"  x="30" y="21" width="1" height="1" fill="black" />
<rect shape-rendering="optimizeSpeed"  x="31" y="21" width="1" height="1" fill="black" />
<rect shape-rendering="optimizeSpeed"  x="5" y="22" width="1" height="1" fill="black" />
<rect shape-rendering="optimizeSpeed"  x="9" y="22" width="1" height="1" fill="black" />
<rect shape-rendering="optimizeSpeed"  x="13" y="22" width="1" height="1" fill="black" />
<rect shape-rendering="optimizeSpeed"  x="15" y="22" width="1" height="1" fill="black" />
<rect shape-rendering="optimizeSpeed"  x="16" y="22" width="1" height="1" fill="black" />
<rect shape-rendering="optimizeSpeed"  x="18" y="22" width="1" height="1" fill="black" />
<rect shape-rendering="optimizeSpeed"  x="23" y="22" width="1" height="1" fill="black" />
<rect shape-rendering="optimizeSpeed"  x="24" y="22" width="1" height="1" fill="black" />
<rect shape-rendering="optimizeSpeed"  x="27" y="22" width="1" height="1" fill="black" />
<rect shape-rendering="optimizeSpeed"  x="28" y="22" width="1" height="1" fill="black" />
<rect shape-rendering="optimizeSpeed"  x="29" y="22" width="1" height="1" fill="black" />
<rect shape-rendering="optimizeSpeed"  x="31" y="22" width="1" height="1" fill="black" />
<rect shape-rendering="optimizeSpeed"  x="33" y="22" width="1" height="1" fill="black" />
<rect shape-rendering="optimizeSpeed"  x="5" y="23" width="1" height="1" fill="black" />
<rect shape-rendering="optimizeSpeed"  x="7" y="23" width="1" height="1" fill="black" />
<rect shape-rendering="optimizeSpeed"  x="9" y="23" width="1" height="1" fill="black" />
<rect shape-rendering="optimizeSpeed"  x="10" y="23" width="1" height="1" fill="black" />
<rect shape-rendering="optimizeSpeed"  x="11" y="23" width="1" height="1" fill="black" />
<rect shape-rendering="optimizeSpeed"  x="17" y="23" width="1" height="1" fill="black" />
<rect shape-rendering="optimizeSpeed"  x="18" y="23" width="1" height="1" fill="black" />
<rect shape-rendering="optimizeSpeed"  x="20" y="23" width="1" height="1" fill="black" />
<rect shape-rendering="optimizeSpeed"  x="21" y="23" width="1" height="1" fill="black" />
<rect shape-rendering="optimizeSpeed"  x="22" y="23" width="1" height="1" fill="black" />
<rect shape-rendering="optimizeSpeed"  x="23" y="23" width="1" height="1" fill="black" />
<rect shape-rendering="optimizeSpeed"  x="28" y="23" width="1" height="1" fill="black" />
<rect shape-rendering="optimizeSpeed"  x="31" y="23" width="1" height="1" fill="black" />
<rect shape-rendering="optimizeSpeed"  x="5" y="24" width="1" height="1" fill="black" />
<rect shape-rendering="optimizeSpeed"  x="7" y="24" width="1" height="1" fill="black" />
<rect shape-rendering="optimizeSpeed"  x="10" y="24" width="1" height="1" fill="black" />
<rect shape-rendering="optimizeSpeed"  x="13" y="24" width="1" height="1" fill="black" />
<rect shape-rendering="optimizeSpeed"  x="14" y="24" width="1" height="1" fill="black" />
<rect shape-rendering="optimizeSpeed"  x="16" y="24" width="1" height="1" fill="black" />
<rect shape-rendering="optimizeSpeed"  x="20" y="24" width="1" height="1" fill="black" />
<rect shape-rendering="optimizeSpeed"  x="23" y="24" width="1" height="1" fill="black" />
<rect shape-rendering="optimizeSpeed"  x="24" y="24" width="1" height="1" fill="black" />
<rect shape-rendering="optimizeSpeed"  x="26" y="24" width="1" height="1" fill="black" />
<rect shape-rendering="optimizeSpeed"  x="28" y="24" width="1" height="1" fill="black" />
<rect shape-rendering="optimizeSpeed"  x="29" y="24" width="1" height="1" fill="black" />
<rect shape-rendering="optimizeSpeed"  x="32" y="24" width="1" height="1" fill="black" />
<rect shape-rendering="optimizeSpeed"  x="5" y="25" width="1" height="1" fill="black" />
<rect shape-rendering="optimizeSpeed"  x="8" y="25" width="1" height="1" fill="black" />
<rect shape-rendering="optimizeSpeed"  x="9" y="25" width="1" height="1" fill="black" />
<rect shape-rendering="optimizeSpeed"  x="10" y="25" width="1" height="1" fill="black" />
<rect shape-rendering="optimizeSpeed"  x="11" y="25" width="1" height="1" fill="black" />
<rect shape-rendering="optimizeSpeed"  x="13" y="25" width="1" height="1" fill="black" />
<rect shape-rendering="optimizeSpeed"  x="15" y="25" width="1" height="1" fill="black" />
<rect shape-rendering="optimizeSpeed"  x="16" y="25" width="1" height="1" fill="black" />
<rect shape-rendering="optimizeSpeed"  x="17" y="25" width="1" height="1" fill="black" />
<rect shape-rendering="optimizeSpeed"  x="18" y="25" width="1" height="1" fill="black" />
<rect shape-rendering="optimizeSpeed"  x="19" y="25" width="1" height="1" fill="black" />
<rect shape-rendering="optimizeSpeed"  x="21" y="25" width="1" height="1" fill="black" />
<rect shape-rendering="optimizeSpeed"  x="22" y="25" width="1" height="1" fill="black" />
<rect shape-rendering="optimizeSpeed"  x="25" y="25" width="1" height="1" fill="black" />
<rect shape-rendering="optimizeSpeed"  x="26" y="25" width="1" height="1" fill="black" />
<rect shape-rendering="optimizeSpeed"  x="27" y="25" width="1" height="1" fill="black" />
<rect shape-rendering="optimizeSpeed"  x="28" y="25" width="1" height="1" fill="black" />
<rect shape-rendering="optimizeSpeed"  x="29" y="25" width="1" height="1" fill="black" />
<rect shape-rendering="optimizeSpeed"  x="31" y="25" width="1" height="1" fill="black" />
<rect shape-rendering="optimizeSpeed"  x="32" y="25" width="1" height="1" fill="black" />
<rect shape-rendering="optimizeSpeed"  x="33" y="25" width="1" height="1" fill="black" />
<rect shape-rendering="optimizeSpeed"  x="13" y="26" width="1" height="1" fill="black" />
<rect shape-rendering="optimizeSpeed"  x="15" y="26" width="1" height="1" fill="black" />
<rect shape-rendering="optimizeSpeed"  x="16" y="26" width="1" height="1" fill="black" />
<rect shape-rendering="optimizeSpeed"  x="22" y="26" width="1" height="1" fill="black" />
<rect shape-rendering="optimizeSpeed"  x="23" y="26" width="1" height="1" fill="black" />
<rect shape-rendering="optimizeSpeed"  x="24" y="26" width="1" height="1" fill="black" />
<rect shape-rendering="optimizeSpeed"  x="25" y="26" width="1" height="1" fill="black" />
<rect shape-rendering="optimizeSpeed"  x="29" y="26" width="1" height="1" fill="black" />
<rect shape-rendering="optimizeSpeed"  x="30" y="26" width="1" height="1" fill="black" />
<rect shape-rendering="optimizeSpeed"  x="31" y="26" width="1" height="1" fill="black" />
<rect shape-rendering="optimizeSpeed"  x="32" y="26" width="1" height="1" fill="black" />
<rect shape-rendering="optimizeSpeed"  x="33" y="26" width="1" height="1" fill="black" />
<rect shape-rendering="optimizeSpeed"  x="5" y="27" width="1" height="1" fill="black" />
<rect shape-rendering="optimizeSpeed"  x="6" y="27" width="1" height="1" fill="black" />
<rect shape-rendering="optimizeSpeed"  x="7" y="27" width="1" height="1" fill="black" />
<rect shape-rendering="optimizeSpeed"  x="8" y="27" width="1" height="1" fill="black" />
<rect shape-rendering="optimizeSpeed"  x="9" y="27" width="1" height="1" fill="black" />
<rect shape-rendering="optimizeSpeed"  x="10" y="27" width="1" height="1" fill="black" />
<rect shape-rendering="optimizeSpeed"  x="11" y="27" width="1" height="1" fill="black" />
<rect shape-rendering="optimizeSpeed"  x="13" y="27" width="1" height="1" fill="black" />
<rect shape-rendering="optimizeSpeed"  x="14" y="27" width="1" height="1" fill="black" />
<rect shape-rendering="optimizeSpeed"  x="15" y="27" width="1" height="1" fill="black" />
<rect shape-rendering="optimizeSpeed"  x="19" y="27" width="1" height="1" fill="black" />
<rect shape-rendering="optimizeSpeed"  x="20" y="27" width="1" height="1" fill="black" />
<rect shape-rendering="optimizeSpeed"  x="21" y="27" width="1" height="1" fill="black" />
<rect shape-rendering="optimizeSpeed"  x="23" y="27" width="1" height="1" fill="black" />
<rect shape-rendering="optimizeSpeed"  x="24" y="27" width="1" height="1" fill="black" />
<rect shape-rendering="optimizeSpeed"  x="25" y="27" width="1" height="1" fill="black" />
<rect shape-rendering="optimizeSpeed"  x="27" y="27" width="1" height="1" fill="black" />
<rect shape-rendering="optimizeSpeed"  x="29" y="27" width="1" height="1" fill="black" />
<rect shape-rendering="optimizeSpeed"  x="30" y="27" width="1" height="1" fill="black" />
<rect shape-rendering="optimizeSpeed"  x="31" y="27" width="1" height="1" fill="black" />
<rect shape-rendering="optimizeSpeed"  x="5" y="28" width="1" height="1" fill="black" />
<rect shape-rendering="optimizeSpeed"  x="11" y="28" width="1" height="1" fill="black" />
<rect shape-rendering="optimizeSpeed"  x="17" y="28" width="1" height="1" fill="black" />
<rect shape-rendering="optimizeSpeed"  x="19" y="28" width="1" height="1" fill="black" />
<rect shape-rendering="optimizeSpeed"  x="21" y="28" width="1" height="1" fill="black" />
<rect shape-rendering="optimizeSpeed"  x="24" y="28" width="1" height="1" fill="black" />
<rect shape-rendering="optimizeSpeed"  x="25" y="28" width="1" height="1" fill="black" />
<rect shape-rendering="optimizeSpeed"  x="29" y="28" width="1" height="1" fill="black" />
<rect shape-rendering="optimizeSpeed"  x="33" y="28" width="1" height="1" fill="black" />
<rect shape-rendering="optimizeSpeed"  x="5" y="29" width="1" height="1" fill="black" />
<rect shape-rendering="optimizeSpeed"  x="7" y="29" width="1" height="1" fill="black" />
<rect shape-rendering="optimizeSpeed"  x="8" y="29" width="1" height="1" fill="black" />
<rect shape-rendering="optimizeSpeed"  x="9" y="29" width="1" height="1" fill="black" />
<rect shape-rendering="optimizeSpeed"  x="11" y="29" width="1" height="1" fill="black" />
<rect shape-rendering="optimizeSpeed"  x="13" y="29" width="1" height="1" fill="black" />
<rect shape-rendering="optimizeSpeed"  x="14" y="29" width="1" height="1" fill="black" />
<rect shape-rendering="optimizeSpeed"  x="17" y="29" width="1" height="1" fill="black" />
<rect shape-rendering="optimizeSpeed"  x="18" y="29" width="1" height="1" fill="black" />
<rect shape-rendering="optimizeSpeed"  x="19" y="29" width="1" height="1" fill="black" />
<rect shape-rendering="optimizeSpeed"  x="22" y="29" width="1" height="1" fill="black" />
<rect shape-rendering="optimizeSpeed"  x="25" y="29" width="1" height="1" fill="black" />
<rect shape-rendering="optimizeSpeed"  x="26" y="29" width="1" height="1" fill="black" />
<rect shape-rendering="optimizeSpeed"  x="27" y="29" width="1" height="1" fill="black" />
<rect shape-rendering="optimizeSpeed"  x="28" y="29" width="1" height="1" fill="black" />
<rect shape-rendering="optimizeSpeed"  x="29" y="29" width="1" height="1" fill="black" />
<rect shape-rendering="optimizeSpeed"  x="31" y="29" width="1" height="1" fill="black" />
<rect shape-rendering="optimizeSpeed"  x="32" y="29" width="1" height="1" fill="black" />
<rect shape-rendering="optimizeSpeed"  x="5" y="30" width="1" height="1" fill="black" />
<rect shape-rendering="optimizeSpeed"  x="7" y="30" width="1" height="1" fill="black" />
<rect shape-rendering="optimizeSpeed"  x="8" y="30" width="1" height="1" fill="black" />
<rect shape-rendering="optimizeSpeed"  x="9" y="30" width="1" height="1" fill="black" />
<rect shape-rendering="optimizeSpeed"  x="11" y="30" width="1" height="1" fill="black" />
<rect shape-rendering="optimizeSpeed"  x="13" y="30" width="1" height="1" fill="black" />
<rect shape-rendering="optimizeSpeed"  x="14" y="30" width="1" height="1" fill="black" />
<rect shape-rendering="optimizeSpeed"  x="15" y="30" width="1" height="1" fill="black" />
<rect shape-rendering="optimizeSpeed"  x="22" y="30" width="1" height="1" fill="black" />
<rect shape-rendering="optimizeSpeed"  x="23" y="30" width="1" height="1" fill="black" />
<rect shape-rendering="optimizeSpeed"  x="24" y="30" width="1" height="1" fill="black" />
<rect shape-rendering="optimizeSpeed"  x="28" y="30" width="1" height="1" fill="black" />
<rect shape-rendering="optimizeSpeed"  x="30" y="30" width="1" height="1" fill="black" />
<rect shape-rendering="optimizeSpeed"  x="31" y="30" width="1" height="1" fill="black" />
<rect shape-rendering="optimizeSpeed"  x="33" y="30" width="1" height="1" fill="black" />
<rect shape-rendering="optimizeSpeed"  x="5" y="31" width="1" height="1" fill="black" />
<rect shape-rendering="optimizeSpeed"  x="7" y="31" width="1" height="1" fill="black" />
<rect shape-rendering="optimizeSpeed"  x="8" y="31" width="1" height="1" fill="black" />
<rect shape-rendering="optimizeSpeed"  x="9" y="31" width="1" height="1" fill="black" />
<rect shape-rendering="optimizeSpeed"  x="11" y="31" width="1" height="1" fill="black" />
<rect shape-rendering="optimizeSpeed"  x="13" y="31" width="1" height="1" fill="black" />
<rect shape-rendering="optimizeSpeed"  x="19" y="31" width="1" height="1" fill="black" />
<rect shape-rendering="optimizeSpeed"  x="20" y="31" width="1" height="1" fill="black" />
<rect shape-rendering="optimizeSpeed"  x="21" y="31" width="1" height="1" fill="black" />
<rect shape-rendering="optimizeSpeed"  x="26" y="31" width="1" height="1" fill="black" />
<rect shape-rendering="optimizeSpeed"  x="27" y="31" width="1" height="1" fill="black" />
<rect shape-rendering="optimizeSpeed"  x="28" y="31" width="1" height="1" fill="black" />
<rect shape-rendering="optimizeSpeed"  x="29" y="31" width="1" height="1" fill="black" />
<rect shape-rendering="optimizeSpeed"  x="30" y="31" width="1" height="1" fill="black" />
<rect shape-rendering="optimizeSpeed"  x="31" y="31" width="1" height="1" fill="black" />
<rect shape-rendering="optimizeSpeed"  x="32" y="31" width="1" height="1" fill="black" />
<rect shape-rendering="optimizeSpeed"  x="5" y="32" width="1" height="1" fill="black" />
<rect shape-rendering="optimizeSpeed"  x="11" y="32" width="1" height="1" fill="black" />
<rect shape-rendering="optimizeSpeed"  x="13" y="32" width="1" height="1" fill="black" />
<rect shape-rendering="optimizeSpeed"  x="14" y="32" width="1" height="1" fill="black" />
<rect shape-rendering="optimizeSpeed"  x="15" y="32" width="1" height="1" fill="black" />
<rect shape-rendering="optimizeSpeed"  x="20" y="32" width="1" height="1" fill="black" />
<rect shape-rendering="optimizeSpeed"  x="21" y="32" width="1" height="1" fill="black" />
<rect shape-rendering="optimizeSpeed"  x="23" y="32" width="1" height="1" fill="black" />
<rect shape-rendering="optimizeSpeed"  x="25" y="32" width="1" height="1" fill="black" />
<rect shape-rendering="optimizeSpeed"  x="26" y="32" width="1" height="1" fill="black" />
<rect shape-rendering="optimizeSpeed"  x="27" y="32" width="1" height="1" fill="black" />
<rect shape-rendering="optimizeSpeed"  x="28" y="32" width="1" height="1" fill="black" />
<rect shape-rendering="optimizeSpeed"  x="30" y="32" width="1" height="1" fill="black" />
<rect shape-rendering="optimizeSpeed"  x="32" y="32" width="1" height="1" fill="black" />
<rect shape-rendering="optimizeSpeed"  x="5" y="33" width="1" height="1" fill="black" />
<rect shape-rendering="optimizeSpeed"  x="6" y="33" width="1" height="1" fill="black" />
<rect shape-rendering="optimizeSpeed"  x="7" y="33" width="1" height="1" fill="black" />
<rect shape-rendering="optimizeSpeed"  x="8" y="33" width="1" height="1" fill="black" />
<rect shape-rendering="optimizeSpeed"  x="9" y="33" width="1" height="1" fill="black" />
<rect shape-rendering="optimizeSpeed"  x="10" y="33" width="1" height="1" fill="black" />
<rect shape-rendering="optimizeSpeed"  x="11" y="33" width="1" height="1" fill="black" />
<rect shape-rendering="optimizeSpeed"  x="13" y="33" width="1" height="1" fill="black" />
<rect shape-rendering="optimizeSpeed"  x="16" y="33" width="1" height="1" fill="black" />
<rect shape-rendering="optimizeSpeed"  x="17" y="33" width="1" height="1" fill="black" />
<rect shape-rendering="optimizeSpeed"  x="18" y="33" width="1" height="1" fill="black" />
<rect shape-rendering="optimizeSpeed"  x="20" y="33" width="1" height="1" fill="black" />
<rect shape-rendering="optimizeSpeed"  x="22" y="33" width="1" height="1" fill="black" />
<rect shape-rendering="optimizeSpeed"  x="24" y="33" width="1" height="1" fill="black" />
<rect shape-rendering="optimizeSpeed"  x="26" y="33" width="1" height="1" fill="black" />
<rect shape-rendering="optimizeSpeed"  x="27" y="33" width="1" height="1" fill="black" />
<rect shape-rendering="optimizeSpeed"  x="28" y="33" width="1" height="1" fill="black" />
<rect shape-rendering="optimizeSpeed"  x="29" y="33" width="1" height="1" fill="black" />
<rect shape-rendering="optimizeSpeed"  x="30" y="33" width="1" height="1" fill="black" />
<rect shape-rendering="optimizeSpeed"  x="31" y="33" width="1" height="1" fill="black" /></svg>