<?xml version="1.0" encoding="UTF-8"?>
<!--https://www.the-qrcode-generator.com(https://www.getjar.mobi/mobile/989621/Asjed-Ansari/)-->
<svg id="Sqr" version="1.1" baseProfile="tiny" xmlns="http://www.w3.org/2000/svg" width="42" height="42">
<rect shape-rendering="optimizeSpeed"  x="0" y="0" width="42" height="42" fill="white" />
<rect shape-rendering="optimizeSpeed"  x="0" y="0" width="2" height="2" fill="black" />
<rect shape-rendering="optimizeSpeed"  x="2" y="0" width="2" height="2" fill="black" />
<rect shape-rendering="optimizeSpeed"  x="4" y="0" width="2" height="2" fill="black" />
<rect shape-rendering="optimizeSpeed"  x="6" y="0" width="2" height="2" fill="black" />
<rect shape-rendering="optimizeSpeed"  x="8" y="0" width="2" height="2" fill="black" />
<rect shape-rendering="optimizeSpeed"  x="10" y="0" width="2" height="2" fill="black" />
<rect shape-rendering="optimizeSpeed"  x="12" y="0" width="2" height="2" fill="black" />
<rect shape-rendering="optimizeSpeed"  x="18" y="0" width="2" height="2" fill="black" />
<rect shape-rendering="optimizeSpeed"  x="22" y="0" width="2" height="2" fill="black" />
<rect shape-rendering="optimizeSpeed"  x="24" y="0" width="2" height="2" fill="black" />
<rect shape-rendering="optimizeSpeed"  x="28" y="0" width="2" height="2" fill="black" />
<rect shape-rendering="optimizeSpeed"  x="30" y="0" width="2" height="2" fill="black" />
<rect shape-rendering="optimizeSpeed"  x="32" y="0" width="2" height="2" fill="black" />
<rect shape-rendering="optimizeSpeed"  x="34" y="0" width="2" height="2" fill="black" />
<rect shape-rendering="optimizeSpeed"  x="36" y="0" width="2" height="2" fill="black" />
<rect shape-rendering="optimizeSpeed"  x="38" y="0" width="2" height="2" fill="black" />
<rect shape-rendering="optimizeSpeed"  x="40" y="0" width="2" height="2" fill="black" />
<rect shape-rendering="optimizeSpeed"  x="0" y="2" width="2" height="2" fill="black" />
<rect shape-rendering="optimizeSpeed"  x="12" y="2" width="2" height="2" fill="black" />
<rect shape-rendering="optimizeSpeed"  x="18" y="2" width="2" height="2" fill="black" />
<rect shape-rendering="optimizeSpeed"  x="20" y="2" width="2" height="2" fill="black" />
<rect shape-rendering="optimizeSpeed"  x="22" y="2" width="2" height="2" fill="black" />
<rect shape-rendering="optimizeSpeed"  x="28" y="2" width="2" height="2" fill="black" />
<rect shape-rendering="optimizeSpeed"  x="40" y="2" width="2" height="2" fill="black" />
<rect shape-rendering="optimizeSpeed"  x="0" y="4" width="2" height="2" fill="black" />
<rect shape-rendering="optimizeSpeed"  x="4" y="4" width="2" height="2" fill="black" />
<rect shape-rendering="optimizeSpeed"  x="6" y="4" width="2" height="2" fill="black" />
<rect shape-rendering="optimizeSpeed"  x="8" y="4" width="2" height="2" fill="black" />
<rect shape-rendering="optimizeSpeed"  x="12" y="4" width="2" height="2" fill="black" />
<rect shape-rendering="optimizeSpeed"  x="16" y="4" width="2" height="2" fill="black" />
<rect shape-rendering="optimizeSpeed"  x="18" y="4" width="2" height="2" fill="black" />
<rect shape-rendering="optimizeSpeed"  x="22" y="4" width="2" height="2" fill="black" />
<rect shape-rendering="optimizeSpeed"  x="24" y="4" width="2" height="2" fill="black" />
<rect shape-rendering="optimizeSpeed"  x="28" y="4" width="2" height="2" fill="black" />
<rect shape-rendering="optimizeSpeed"  x="32" y="4" width="2" height="2" fill="black" />
<rect shape-rendering="optimizeSpeed"  x="34" y="4" width="2" height="2" fill="black" />
<rect shape-rendering="optimizeSpeed"  x="36" y="4" width="2" height="2" fill="black" />
<rect shape-rendering="optimizeSpeed"  x="40" y="4" width="2" height="2" fill="black" />
<rect shape-rendering="optimizeSpeed"  x="0" y="6" width="2" height="2" fill="black" />
<rect shape-rendering="optimizeSpeed"  x="4" y="6" width="2" height="2" fill="black" />
<rect shape-rendering="optimizeSpeed"  x="6" y="6" width="2" height="2" fill="black" />
<rect shape-rendering="optimizeSpeed"  x="8" y="6" width="2" height="2" fill="black" />
<rect shape-rendering="optimizeSpeed"  x="12" y="6" width="2" height="2" fill="black" />
<rect shape-rendering="optimizeSpeed"  x="18" y="6" width="2" height="2" fill="black" />
<rect shape-rendering="optimizeSpeed"  x="22" y="6" width="2" height="2" fill="black" />
<rect shape-rendering="optimizeSpeed"  x="28" y="6" width="2" height="2" fill="black" />
<rect shape-rendering="optimizeSpeed"  x="32" y="6" width="2" height="2" fill="black" />
<rect shape-rendering="optimizeSpeed"  x="34" y="6" width="2" height="2" fill="black" />
<rect shape-rendering="optimizeSpeed"  x="36" y="6" width="2" height="2" fill="black" />
<rect shape-rendering="optimizeSpeed"  x="40" y="6" width="2" height="2" fill="black" />
<rect shape-rendering="optimizeSpeed"  x="0" y="8" width="2" height="2" fill="black" />
<rect shape-rendering="optimizeSpeed"  x="4" y="8" width="2" height="2" fill="black" />
<rect shape-rendering="optimizeSpeed"  x="6" y="8" width="2" height="2" fill="black" />
<rect shape-rendering="optimizeSpeed"  x="8" y="8" width="2" height="2" fill="black" />
<rect shape-rendering="optimizeSpeed"  x="12" y="8" width="2" height="2" fill="black" />
<rect shape-rendering="optimizeSpeed"  x="20" y="8" width="2" height="2" fill="black" />
<rect shape-rendering="optimizeSpeed"  x="24" y="8" width="2" height="2" fill="black" />
<rect shape-rendering="optimizeSpeed"  x="28" y="8" width="2" height="2" fill="black" />
<rect shape-rendering="optimizeSpeed"  x="32" y="8" width="2" height="2" fill="black" />
<rect shape-rendering="optimizeSpeed"  x="34" y="8" width="2" height="2" fill="black" />
<rect shape-rendering="optimizeSpeed"  x="36" y="8" width="2" height="2" fill="black" />
<rect shape-rendering="optimizeSpeed"  x="40" y="8" width="2" height="2" fill="black" />
<rect shape-rendering="optimizeSpeed"  x="0" y="10" width="2" height="2" fill="black" />
<rect shape-rendering="optimizeSpeed"  x="12" y="10" width="2" height="2" fill="black" />
<rect shape-rendering="optimizeSpeed"  x="24" y="10" width="2" height="2" fill="black" />
<rect shape-rendering="optimizeSpeed"  x="28" y="10" width="2" height="2" fill="black" />
<rect shape-rendering="optimizeSpeed"  x="40" y="10" width="2" height="2" fill="black" />
<rect shape-rendering="optimizeSpeed"  x="0" y="12" width="2" height="2" fill="black" />
<rect shape-rendering="optimizeSpeed"  x="2" y="12" width="2" height="2" fill="black" />
<rect shape-rendering="optimizeSpeed"  x="4" y="12" width="2" height="2" fill="black" />
<rect shape-rendering="optimizeSpeed"  x="6" y="12" width="2" height="2" fill="black" />
<rect shape-rendering="optimizeSpeed"  x="8" y="12" width="2" height="2" fill="black" />
<rect shape-rendering="optimizeSpeed"  x="10" y="12" width="2" height="2" fill="black" />
<rect shape-rendering="optimizeSpeed"  x="12" y="12" width="2" height="2" fill="black" />
<rect shape-rendering="optimizeSpeed"  x="16" y="12" width="2" height="2" fill="black" />
<rect shape-rendering="optimizeSpeed"  x="20" y="12" width="2" height="2" fill="black" />
<rect shape-rendering="optimizeSpeed"  x="24" y="12" width="2" height="2" fill="black" />
<rect shape-rendering="optimizeSpeed"  x="28" y="12" width="2" height="2" fill="black" />
<rect shape-rendering="optimizeSpeed"  x="30" y="12" width="2" height="2" fill="black" />
<rect shape-rendering="optimizeSpeed"  x="32" y="12" width="2" height="2" fill="black" />
<rect shape-rendering="optimizeSpeed"  x="34" y="12" width="2" height="2" fill="black" />
<rect shape-rendering="optimizeSpeed"  x="36" y="12" width="2" height="2" fill="black" />
<rect shape-rendering="optimizeSpeed"  x="38" y="12" width="2" height="2" fill="black" />
<rect shape-rendering="optimizeSpeed"  x="40" y="12" width="2" height="2" fill="black" />
<rect shape-rendering="optimizeSpeed"  x="16" y="14" width="2" height="2" fill="black" />
<rect shape-rendering="optimizeSpeed"  x="18" y="14" width="2" height="2" fill="black" />
<rect shape-rendering="optimizeSpeed"  x="22" y="14" width="2" height="2" fill="black" />
<rect shape-rendering="optimizeSpeed"  x="24" y="14" width="2" height="2" fill="black" />
<rect shape-rendering="optimizeSpeed"  x="0" y="16" width="2" height="2" fill="black" />
<rect shape-rendering="optimizeSpeed"  x="2" y="16" width="2" height="2" fill="black" />
<rect shape-rendering="optimizeSpeed"  x="4" y="16" width="2" height="2" fill="black" />
<rect shape-rendering="optimizeSpeed"  x="8" y="16" width="2" height="2" fill="black" />
<rect shape-rendering="optimizeSpeed"  x="10" y="16" width="2" height="2" fill="black" />
<rect shape-rendering="optimizeSpeed"  x="12" y="16" width="2" height="2" fill="black" />
<rect shape-rendering="optimizeSpeed"  x="14" y="16" width="2" height="2" fill="black" />
<rect shape-rendering="optimizeSpeed"  x="16" y="16" width="2" height="2" fill="black" />
<rect shape-rendering="optimizeSpeed"  x="18" y="16" width="2" height="2" fill="black" />
<rect shape-rendering="optimizeSpeed"  x="20" y="16" width="2" height="2" fill="black" />
<rect shape-rendering="optimizeSpeed"  x="22" y="16" width="2" height="2" fill="black" />
<rect shape-rendering="optimizeSpeed"  x="26" y="16" width="2" height="2" fill="black" />
<rect shape-rendering="optimizeSpeed"  x="28" y="16" width="2" height="2" fill="black" />
<rect shape-rendering="optimizeSpeed"  x="36" y="16" width="2" height="2" fill="black" />
<rect shape-rendering="optimizeSpeed"  x="0" y="18" width="2" height="2" fill="black" />
<rect shape-rendering="optimizeSpeed"  x="4" y="18" width="2" height="2" fill="black" />
<rect shape-rendering="optimizeSpeed"  x="6" y="18" width="2" height="2" fill="black" />
<rect shape-rendering="optimizeSpeed"  x="8" y="18" width="2" height="2" fill="black" />
<rect shape-rendering="optimizeSpeed"  x="18" y="18" width="2" height="2" fill="black" />
<rect shape-rendering="optimizeSpeed"  x="28" y="18" width="2" height="2" fill="black" />
<rect shape-rendering="optimizeSpeed"  x="30" y="18" width="2" height="2" fill="black" />
<rect shape-rendering="optimizeSpeed"  x="40" y="18" width="2" height="2" fill="black" />
<rect shape-rendering="optimizeSpeed"  x="0" y="20" width="2" height="2" fill="black" />
<rect shape-rendering="optimizeSpeed"  x="2" y="20" width="2" height="2" fill="black" />
<rect shape-rendering="optimizeSpeed"  x="8" y="20" width="2" height="2" fill="black" />
<rect shape-rendering="optimizeSpeed"  x="12" y="20" width="2" height="2" fill="black" />
<rect shape-rendering="optimizeSpeed"  x="14" y="20" width="2" height="2" fill="black" />
<rect shape-rendering="optimizeSpeed"  x="16" y="20" width="2" height="2" fill="black" />
<rect shape-rendering="optimizeSpeed"  x="18" y="20" width="2" height="2" fill="black" />
<rect shape-rendering="optimizeSpeed"  x="20" y="20" width="2" height="2" fill="black" />
<rect shape-rendering="optimizeSpeed"  x="24" y="20" width="2" height="2" fill="black" />
<rect shape-rendering="optimizeSpeed"  x="32" y="20" width="2" height="2" fill="black" />
<rect shape-rendering="optimizeSpeed"  x="36" y="20" width="2" height="2" fill="black" />
<rect shape-rendering="optimizeSpeed"  x="38" y="20" width="2" height="2" fill="black" />
<rect shape-rendering="optimizeSpeed"  x="40" y="20" width="2" height="2" fill="black" />
<rect shape-rendering="optimizeSpeed"  x="6" y="22" width="2" height="2" fill="black" />
<rect shape-rendering="optimizeSpeed"  x="8" y="22" width="2" height="2" fill="black" />
<rect shape-rendering="optimizeSpeed"  x="10" y="22" width="2" height="2" fill="black" />
<rect shape-rendering="optimizeSpeed"  x="18" y="22" width="2" height="2" fill="black" />
<rect shape-rendering="optimizeSpeed"  x="20" y="22" width="2" height="2" fill="black" />
<rect shape-rendering="optimizeSpeed"  x="28" y="22" width="2" height="2" fill="black" />
<rect shape-rendering="optimizeSpeed"  x="32" y="22" width="2" height="2" fill="black" />
<rect shape-rendering="optimizeSpeed"  x="38" y="22" width="2" height="2" fill="black" />
<rect shape-rendering="optimizeSpeed"  x="0" y="24" width="2" height="2" fill="black" />
<rect shape-rendering="optimizeSpeed"  x="6" y="24" width="2" height="2" fill="black" />
<rect shape-rendering="optimizeSpeed"  x="10" y="24" width="2" height="2" fill="black" />
<rect shape-rendering="optimizeSpeed"  x="12" y="24" width="2" height="2" fill="black" />
<rect shape-rendering="optimizeSpeed"  x="14" y="24" width="2" height="2" fill="black" />
<rect shape-rendering="optimizeSpeed"  x="24" y="24" width="2" height="2" fill="black" />
<rect shape-rendering="optimizeSpeed"  x="28" y="24" width="2" height="2" fill="black" />
<rect shape-rendering="optimizeSpeed"  x="30" y="24" width="2" height="2" fill="black" />
<rect shape-rendering="optimizeSpeed"  x="34" y="24" width="2" height="2" fill="black" />
<rect shape-rendering="optimizeSpeed"  x="16" y="26" width="2" height="2" fill="black" />
<rect shape-rendering="optimizeSpeed"  x="22" y="26" width="2" height="2" fill="black" />
<rect shape-rendering="optimizeSpeed"  x="26" y="26" width="2" height="2" fill="black" />
<rect shape-rendering="optimizeSpeed"  x="30" y="26" width="2" height="2" fill="black" />
<rect shape-rendering="optimizeSpeed"  x="32" y="26" width="2" height="2" fill="black" />
<rect shape-rendering="optimizeSpeed"  x="38" y="26" width="2" height="2" fill="black" />
<rect shape-rendering="optimizeSpeed"  x="40" y="26" width="2" height="2" fill="black" />
<rect shape-rendering="optimizeSpeed"  x="0" y="28" width="2" height="2" fill="black" />
<rect shape-rendering="optimizeSpeed"  x="2" y="28" width="2" height="2" fill="black" />
<rect shape-rendering="optimizeSpeed"  x="4" y="28" width="2" height="2" fill="black" />
<rect shape-rendering="optimizeSpeed"  x="6" y="28" width="2" height="2" fill="black" />
<rect shape-rendering="optimizeSpeed"  x="8" y="28" width="2" height="2" fill="black" />
<rect shape-rendering="optimizeSpeed"  x="10" y="28" width="2" height="2" fill="black" />
<rect shape-rendering="optimizeSpeed"  x="12" y="28" width="2" height="2" fill="black" />
<rect shape-rendering="optimizeSpeed"  x="16" y="28" width="2" height="2" fill="black" />
<rect shape-rendering="optimizeSpeed"  x="20" y="28" width="2" height="2" fill="black" />
<rect shape-rendering="optimizeSpeed"  x="22" y="28" width="2" height="2" fill="black" />
<rect shape-rendering="optimizeSpeed"  x="26" y="28" width="2" height="2" fill="black" />
<rect shape-rendering="optimizeSpeed"  x="28" y="28" width="2" height="2" fill="black" />
<rect shape-rendering="optimizeSpeed"  x="32" y="28" width="2" height="2" fill="black" />
<rect shape-rendering="optimizeSpeed"  x="36" y="28" width="2" height="2" fill="black" />
<rect shape-rendering="optimizeSpeed"  x="38" y="28" width="2" height="2" fill="black" />
<rect shape-rendering="optimizeSpeed"  x="40" y="28" width="2" height="2" fill="black" />
<rect shape-rendering="optimizeSpeed"  x="0" y="30" width="2" height="2" fill="black" />
<rect shape-rendering="optimizeSpeed"  x="12" y="30" width="2" height="2" fill="black" />
<rect shape-rendering="optimizeSpeed"  x="16" y="30" width="2" height="2" fill="black" />
<rect shape-rendering="optimizeSpeed"  x="18" y="30" width="2" height="2" fill="black" />
<rect shape-rendering="optimizeSpeed"  x="22" y="30" width="2" height="2" fill="black" />
<rect shape-rendering="optimizeSpeed"  x="24" y="30" width="2" height="2" fill="black" />
<rect shape-rendering="optimizeSpeed"  x="26" y="30" width="2" height="2" fill="black" />
<rect shape-rendering="optimizeSpeed"  x="32" y="30" width="2" height="2" fill="black" />
<rect shape-rendering="optimizeSpeed"  x="40" y="30" width="2" height="2" fill="black" />
<rect shape-rendering="optimizeSpeed"  x="0" y="32" width="2" height="2" fill="black" />
<rect shape-rendering="optimizeSpeed"  x="4" y="32" width="2" height="2" fill="black" />
<rect shape-rendering="optimizeSpeed"  x="6" y="32" width="2" height="2" fill="black" />
<rect shape-rendering="optimizeSpeed"  x="8" y="32" width="2" height="2" fill="black" />
<rect shape-rendering="optimizeSpeed"  x="12" y="32" width="2" height="2" fill="black" />
<rect shape-rendering="optimizeSpeed"  x="16" y="32" width="2" height="2" fill="black" />
<rect shape-rendering="optimizeSpeed"  x="20" y="32" width="2" height="2" fill="black" />
<rect shape-rendering="optimizeSpeed"  x="22" y="32" width="2" height="2" fill="black" />
<rect shape-rendering="optimizeSpeed"  x="26" y="32" width="2" height="2" fill="black" />
<rect shape-rendering="optimizeSpeed"  x="28" y="32" width="2" height="2" fill="black" />
<rect shape-rendering="optimizeSpeed"  x="30" y="32" width="2" height="2" fill="black" />
<rect shape-rendering="optimizeSpeed"  x="34" y="32" width="2" height="2" fill="black" />
<rect shape-rendering="optimizeSpeed"  x="38" y="32" width="2" height="2" fill="black" />
<rect shape-rendering="optimizeSpeed"  x="40" y="32" width="2" height="2" fill="black" />
<rect shape-rendering="optimizeSpeed"  x="0" y="34" width="2" height="2" fill="black" />
<rect shape-rendering="optimizeSpeed"  x="4" y="34" width="2" height="2" fill="black" />
<rect shape-rendering="optimizeSpeed"  x="6" y="34" width="2" height="2" fill="black" />
<rect shape-rendering="optimizeSpeed"  x="8" y="34" width="2" height="2" fill="black" />
<rect shape-rendering="optimizeSpeed"  x="12" y="34" width="2" height="2" fill="black" />
<rect shape-rendering="optimizeSpeed"  x="18" y="34" width="2" height="2" fill="black" />
<rect shape-rendering="optimizeSpeed"  x="20" y="34" width="2" height="2" fill="black" />
<rect shape-rendering="optimizeSpeed"  x="28" y="34" width="2" height="2" fill="black" />
<rect shape-rendering="optimizeSpeed"  x="30" y="34" width="2" height="2" fill="black" />
<rect shape-rendering="optimizeSpeed"  x="32" y="34" width="2" height="2" fill="black" />
<rect shape-rendering="optimizeSpeed"  x="34" y="34" width="2" height="2" fill="black" />
<rect shape-rendering="optimizeSpeed"  x="38" y="34" width="2" height="2" fill="black" />
<rect shape-rendering="optimizeSpeed"  x="0" y="36" width="2" height="2" fill="black" />
<rect shape-rendering="optimizeSpeed"  x="4" y="36" width="2" height="2" fill="black" />
<rect shape-rendering="optimizeSpeed"  x="6" y="36" width="2" height="2" fill="black" />
<rect shape-rendering="optimizeSpeed"  x="8" y="36" width="2" height="2" fill="black" />
<rect shape-rendering="optimizeSpeed"  x="12" y="36" width="2" height="2" fill="black" />
<rect shape-rendering="optimizeSpeed"  x="16" y="36" width="2" height="2" fill="black" />
<rect shape-rendering="optimizeSpeed"  x="20" y="36" width="2" height="2" fill="black" />
<rect shape-rendering="optimizeSpeed"  x="24" y="36" width="2" height="2" fill="black" />
<rect shape-rendering="optimizeSpeed"  x="32" y="36" width="2" height="2" fill="black" />
<rect shape-rendering="optimizeSpeed"  x="36" y="36" width="2" height="2" fill="black" />
<rect shape-rendering="optimizeSpeed"  x="40" y="36" width="2" height="2" fill="black" />
<rect shape-rendering="optimizeSpeed"  x="0" y="38" width="2" height="2" fill="black" />
<rect shape-rendering="optimizeSpeed"  x="12" y="38" width="2" height="2" fill="black" />
<rect shape-rendering="optimizeSpeed"  x="16" y="38" width="2" height="2" fill="black" />
<rect shape-rendering="optimizeSpeed"  x="18" y="38" width="2" height="2" fill="black" />
<rect shape-rendering="optimizeSpeed"  x="20" y="38" width="2" height="2" fill="black" />
<rect shape-rendering="optimizeSpeed"  x="28" y="38" width="2" height="2" fill="black" />
<rect shape-rendering="optimizeSpeed"  x="30" y="38" width="2" height="2" fill="black" />
<rect shape-rendering="optimizeSpeed"  x="32" y="38" width="2" height="2" fill="black" />
<rect shape-rendering="optimizeSpeed"  x="34" y="38" width="2" height="2" fill="black" />
<rect shape-rendering="optimizeSpeed"  x="38" y="38" width="2" height="2" fill="black" />
<rect shape-rendering="optimizeSpeed"  x="0" y="40" width="2" height="2" fill="black" />
<rect shape-rendering="optimizeSpeed"  x="2" y="40" width="2" height="2" fill="black" />
<rect shape-rendering="optimizeSpeed"  x="4" y="40" width="2" height="2" fill="black" />
<rect shape-rendering="optimizeSpeed"  x="6" y="40" width="2" height="2" fill="black" />
<rect shape-rendering="optimizeSpeed"  x="8" y="40" width="2" height="2" fill="black" />
<rect shape-rendering="optimizeSpeed"  x="10" y="40" width="2" height="2" fill="black" />
<rect shape-rendering="optimizeSpeed"  x="12" y="40" width="2" height="2" fill="black" />
<rect shape-rendering="optimizeSpeed"  x="16" y="40" width="2" height="2" fill="black" />
<rect shape-rendering="optimizeSpeed"  x="24" y="40" width="2" height="2" fill="black" />
<rect shape-rendering="optimizeSpeed"  x="28" y="40" width="2" height="2" fill="black" />
<rect shape-rendering="optimizeSpeed"  x="34" y="40" width="2" height="2" fill="black" />
<rect shape-rendering="optimizeSpeed"  x="38" y="40" width="2" height="2" fill="black" />
<rect shape-rendering="optimizeSpeed"  x="40" y="40" width="2" height="2" fill="black" /></svg>